<?xml version="1.0" encoding="utf-8"?>
<!-- Generator: Adobe Illustrator 27.5.0, SVG Export Plug-In . SVG Version: 6.00 Build 0)  -->
<svg version="1.1" id="Layer_1" xmlns="http://www.w3.org/2000/svg" xmlns:xlink="http://www.w3.org/1999/xlink" x="0px" y="0px"
	 viewBox="0 0 750 750" style="enable-background:new 0 0 750 750;" xml:space="preserve">
<g>
	<polygon points="227.666,149.43 228.754,148.343 228.754,145.442 227.304,143.267 225.128,142.179 221.865,142.179 221.14,139.279 
		218.603,137.466 216.79,137.104 215.34,137.829 212.802,141.092 212.802,142.904 214.252,145.08 215.702,145.805 218.603,145.805 
		219.328,149.43 221.14,151.243 223.678,151.606 226.216,150.88 226.941,149.43 	"/>
	<polygon points="332.081,149.793 332.806,149.43 333.168,147.255 332.081,146.167 331.718,143.629 329.543,143.267 
		327.005,141.092 324.467,141.092 324.104,141.454 323.017,143.267 323.379,144.717 325.192,146.53 328.818,146.53 329.543,146.167 
		328.818,147.617 328.093,150.518 326.28,149.793 324.83,150.155 323.742,151.243 323.379,153.056 324.104,154.868 325.917,155.594 
		327.005,156.681 329.905,156.681 330.63,155.956 333.893,155.231 335.969,154.466 336.069,154.506 340.782,152.693 
		346.583,151.243 347.743,150.88 348.033,150.88 352.383,149.43 353.108,148.343 351.658,147.98 345.495,149.793 343.32,150.518 
		340.057,151.606 338.969,151.968 335.827,152.935 332.443,153.781 	"/>
	<polygon points="127.965,280.311 128.328,280.673 131.953,279.586 132.678,278.135 134.491,277.41 134.854,278.135 
		137.029,277.773 135.941,277.048 132.678,276.685 130.14,277.41 124.34,279.223 121.077,280.673 117.451,282.123 115.276,283.574 
		116.001,284.299 117.814,284.661 120.714,283.574 125.79,282.849 127.603,281.761 127.603,281.036 124.702,281.036 125.79,280.311 
			"/>
	<polygon points="155.156,160.669 155.156,163.932 155.519,166.108 156.244,167.195 159.144,169.008 162.407,169.008 
		163.495,168.645 165.67,167.195 166.758,165.382 167.483,161.757 166.758,159.219 168.571,158.857 168.933,157.769 
		167.483,156.681 165.67,155.956 164.583,157.044 162.77,156.681 160.595,156.681 158.419,157.406 156.607,158.494 	"/>
	<polygon points="168.571,155.231 171.109,155.956 172.921,157.769 175.822,158.857 177.634,158.131 177.272,156.319 
		173.646,154.506 173.284,151.606 171.834,150.155 169.658,149.793 168.208,150.88 167.483,153.781 	"/>
	<polygon points="219.69,188.223 222.591,188.223 224.403,186.773 225.128,184.598 222.953,184.235 222.953,183.51 221.503,182.785 
		218.965,182.422 217.515,183.51 217.152,185.323 217.877,186.773 	"/>
	<polygon points="230.929,169.008 231.292,170.458 233.105,171.908 235.642,171.546 237.093,169.733 237.093,167.558 
		236.73,166.833 234.917,165.382 232.379,165.382 232.017,165.745 	"/>
	<polygon points="84.097,335.418 81.559,335.418 80.834,335.781 79.021,337.231 77.571,339.406 77.571,342.669 77.933,343.757 
		79.383,345.57 82.284,346.657 84.822,346.657 85.909,345.932 88.447,343.394 89.172,340.494 86.272,336.868 	"/>
	<polygon points="323.742,128.765 320.479,129.127 319.391,129.853 319.754,133.478 320.842,135.291 324.467,135.291 
		326.28,136.378 329.18,136.378 329.905,136.016 331.718,133.841 332.081,131.303 330.993,129.49 328.818,128.04 326.28,127.677 	
		"/>
	<polygon points="182.348,170.821 179.81,171.908 179.447,175.534 179.085,176.259 179.81,178.434 181.622,180.61 184.885,180.61 
		185.611,180.247 187.423,178.072 189.236,177.347 189.961,175.896 189.236,173.721 184.16,171.183 	"/>
	<polygon points="89.172,300.976 90.985,300.976 91.71,300.251 94.248,297.35 94.248,294.45 92.798,291.912 90.623,290.462 
		87.722,290.462 86.272,291.187 84.459,293.362 84.097,297.713 87.36,299.888 	"/>
	<polygon points="343.32,101.574 345.495,102.661 349.12,102.299 351.296,100.486 351.658,95.773 349.12,92.872 345.495,92.51 
		342.595,94.323 341.507,96.498 341.869,99.398 	"/>
	<polygon points="162.045,84.896 163.495,83.809 163.495,80.183 162.407,79.096 160.595,79.096 159.869,79.458 158.419,80.908 
		158.419,82.721 159.869,84.534 	"/>
	<polygon points="116.001,389.438 118.539,388.35 119.626,386.175 119.264,381.462 117.451,379.649 114.913,379.649 
		113.826,380.012 112.013,381.462 111.65,385.813 113.826,389.076 	"/>
	<polygon points="193.587,130.578 195.399,129.127 196.124,126.59 196.85,125.865 197.212,124.414 195.399,124.052 194.674,124.777 
		192.862,125.865 191.411,126.952 191.049,128.765 191.774,129.853 	"/>
	<polygon points="244.344,148.343 246.156,149.43 247.607,149.068 247.969,147.255 245.069,144.355 243.256,144.355 241.443,145.08 
		241.081,146.53 241.806,147.617 	"/>
	<polygon points="197.575,148.705 199.75,148.705 200.113,148.343 200.475,146.53 198.3,142.904 196.487,142.904 195.399,144.717 
		195.762,147.255 	"/>
	<polygon points="212.077,112.45 214.252,113.538 217.152,112.813 218.603,111.363 218.603,108.825 217.877,107.012 
		216.427,105.562 213.889,105.199 212.802,105.562 210.264,108.462 210.989,111 	"/>
	<polygon points="211.352,127.677 212.802,126.227 212.802,124.052 211.352,122.602 208.814,122.602 207.726,123.689 
		207.726,125.502 209.539,127.677 	"/>
	<polygon points="331.718,111.363 333.531,111 334.618,109.912 334.256,107.374 333.168,106.287 330.63,106.287 329.543,107.374 
		329.543,109.912 329.905,110.275 	"/>
	<polygon points="160.595,128.765 160.595,130.578 161.682,132.028 163.858,132.39 165.67,130.94 165.67,128.765 164.22,127.315 
		162.045,127.315 	"/>
	<polygon points="226.579,137.829 228.029,136.378 228.391,134.566 227.666,133.841 225.491,132.753 224.766,133.116 
		222.953,134.566 222.953,136.741 224.403,137.829 	"/>
	<polygon points="276.248,166.833 278.061,167.195 279.511,165.382 279.873,163.57 278.786,162.119 276.248,162.119 
		274.798,163.932 275.16,165.382 	"/>
	<polygon points="80.109,305.689 81.196,306.777 84.097,306.777 85.184,306.052 85.547,304.239 84.097,302.789 82.646,302.426 
		81.921,302.789 80.109,303.876 	"/>
	<polygon points="361.447,143.267 363.26,142.179 363.622,140.729 361.447,139.279 358.909,139.279 357.822,140.367 
		357.822,142.179 359.272,143.267 	"/>
	<polygon points="214.614,194.749 214.614,192.574 213.164,191.123 210.264,190.398 209.176,190.761 209.176,192.211 
		211.352,194.749 	"/>
	<polygon points="304.527,141.092 305.252,140.367 305.614,138.554 304.527,137.466 302.352,137.104 300.539,138.191 
		300.539,140.367 301.264,141.092 	"/>
	<polygon points="156.244,122.964 157.694,121.876 157.694,120.064 156.607,118.614 154.794,118.251 154.069,118.614 
		152.981,121.151 154.431,122.964 	"/>
	<polygon points="514.443,574.338 514.443,571.801 513.355,570.713 511.18,570.713 510.455,571.438 510.141,573.321 
		508.919,573.016 508.919,573.741 510.121,573.441 510.092,573.613 511.18,575.064 512.993,575.426 	"/>
	<polygon points="315.766,152.693 317.216,150.88 317.216,147.98 315.041,146.167 312.865,146.167 311.053,147.98 311.053,150.88 
		312.503,152.693 	"/>
	<polygon points="453.172,112.088 457.16,110.637 457.523,109.55 456.435,108.825 453.535,108.825 450.634,110.275 450.997,111.725 
			"/>
	<polygon points="98.599,290.825 100.411,290.462 101.862,288.649 101.862,286.474 101.499,285.749 99.686,284.299 97.511,284.299 
		96.061,286.111 96.061,288.287 96.786,289.737 	"/>
	<polygon points="268.272,163.207 268.634,161.394 267.184,159.944 264.284,159.944 263.559,160.669 263.559,162.482 
		266.459,163.57 	"/>
	<polygon points="323.742,155.594 321.929,155.594 320.842,155.956 320.842,157.406 320.842,159.582 322.292,159.582 
		325.555,158.494 325.917,157.406 324.104,156.681 	"/>
	<polygon points="230.204,91.422 232.017,89.61 232.017,87.797 231.292,87.434 229.479,87.072 228.029,88.159 227.666,90.335 
		228.391,91.06 	"/>
	<polygon points="331.718,115.713 331.718,118.251 332.443,118.976 334.618,118.976 335.706,117.526 334.981,115.351 
		333.168,114.625 	"/>
	<polygon points="204.101,100.486 205.188,99.398 204.826,96.861 203.013,96.135 201.925,96.498 201.563,97.223 201.2,99.036 
		201.925,100.123 	"/>
	<polygon points="204.463,165.02 204.101,166.47 205.551,167.558 207.001,167.92 208.451,166.833 208.451,165.02 207.726,164.295 
		205.913,163.932 	"/>
	<polygon points="218.603,114.988 218.24,116.801 218.965,117.888 221.14,117.888 222.228,116.801 222.228,114.988 221.503,114.263 
		219.69,113.9 	"/>
	<polygon points="182.348,127.677 182.71,127.315 182.71,125.502 181.985,124.414 179.81,124.052 179.085,124.414 178.722,126.952 
		179.447,127.677 	"/>
	<polygon points="115.276,236.442 118.901,234.992 118.901,233.904 117.814,233.542 116.001,234.267 114.551,233.904 
		112.375,235.355 112.013,236.442 112.738,236.805 	"/>
	<polygon points="250.144,150.518 251.232,154.143 251.957,154.143 253.407,152.331 253.77,150.155 253.045,149.43 251.595,149.068 
			"/>
	<polygon points="134.491,409.378 133.766,408.653 131.591,408.653 131.228,409.016 130.866,411.191 131.953,412.279 
		134.128,411.916 	"/>
	<polygon points="153.706,566.725 154.431,565.275 151.893,564.912 151.168,565.275 147.905,566 147.18,567.45 150.081,567.45 	"/>
	<polygon points="122.889,248.769 125.065,248.769 128.69,247.319 128.69,246.231 126.515,245.506 126.515,246.231 122.889,247.319 
			"/>
	<polygon points="402.778,127.315 404.228,125.865 403.14,124.052 401.328,124.052 400.24,124.777 400.24,126.59 400.965,127.315 	
		"/>
	<polygon points="418.005,118.976 419.818,119.701 421.268,119.339 421.268,117.888 420.18,117.163 418.367,117.526 
		416.192,117.163 415.467,117.888 415.83,119.339 	"/>
	<polygon points="153.344,445.271 154.069,443.821 151.893,442.008 150.443,442.733 150.081,443.821 151.168,445.633 
		152.618,446.358 	"/>
	<polygon points="130.866,452.884 132.316,453.247 135.216,452.159 135.216,449.621 133.766,449.621 131.953,450.709 	"/>
	<polygon points="106.937,189.311 107.3,188.948 107.662,187.135 106.937,186.048 105.125,186.048 104.399,186.773 104.762,189.311 
			"/>
	<polygon points="196.85,140.729 198.662,141.454 201.2,141.454 201.563,140.729 201.2,139.641 199.387,138.554 197.575,139.279 	
		"/>
	<polygon points="104.399,259.645 104.037,261.096 105.487,261.096 108.025,260.37 109.113,259.645 109.475,258.558 105.85,258.558 
			"/>
	<polygon points="360.722,129.853 361.085,127.677 360.359,126.952 358.909,126.59 358.547,126.952 357.822,128.765 
		358.909,130.215 	"/>
	<polygon points="216.427,77.645 216.065,76.195 213.889,75.833 213.164,76.558 213.164,78.371 214.977,79.096 	"/>
	<polygon points="361.085,83.446 361.447,83.084 361.81,81.633 361.085,80.546 359.272,80.546 358.909,80.908 358.547,82.721 
		359.272,83.446 	"/>
	<polygon points="197.937,178.072 198.3,176.259 195.762,175.896 195.037,176.621 195.399,178.434 197.212,178.797 	"/>
	<polygon points="119.264,577.964 118.901,578.326 118.539,580.139 119.626,580.864 121.439,580.502 121.802,578.689 
		121.077,577.964 	"/>
	<polygon points="80.834,312.578 81.196,310.765 80.471,310.04 78.658,310.04 78.296,310.402 77.933,311.852 79.383,312.94 	"/>
	<polygon points="114.913,175.171 115.276,174.809 115.638,172.996 113.826,172.271 112.375,173.359 113.101,175.171 	"/>
	<polygon points="162.045,180.247 162.407,177.709 160.595,177.347 159.869,177.709 159.507,179.522 160.957,180.61 	"/>
	<polygon points="200.475,165.382 201.563,164.295 201.2,162.482 199.025,162.482 198.662,163.207 199.025,165.02 	"/>
	<polygon points="131.953,414.454 130.14,414.091 129.415,414.817 129.778,416.629 131.591,416.992 132.316,416.267 	"/>
	<polygon points="156.969,569.988 156.607,570.35 154.794,571.438 154.794,572.888 158.057,572.526 158.057,570.35 	"/>
	<polygon points="480.363,99.036 480.363,97.586 479.638,96.861 477.826,96.861 477.463,98.673 478.188,99.398 	"/>
	<polygon points="385.013,113.175 384.65,111.725 382.838,111.725 382.112,112.088 382.112,113.9 383.925,114.263 	"/>
	<polygon points="120.352,539.896 120.714,538.083 119.264,538.083 117.451,538.809 117.451,540.259 119.626,540.259 	"/>
	<polygon points="104.762,217.59 105.125,216.139 103.312,215.052 102.587,215.414 102.224,216.864 103.312,217.952 	"/>
	<polygon points="219.69,155.231 219.328,153.781 217.515,153.418 217.152,153.781 216.79,155.231 217.515,155.956 219.328,155.956 
			"/>
	<polygon points="167.12,168.645 165.308,168.645 164.945,169.008 164.945,170.821 166.758,171.183 167.483,170.458 	"/>
	<polygon points="100.411,511.617 99.686,512.342 100.049,513.793 101.862,514.155 102.587,513.068 102.224,511.98 	"/>
	<polygon points="252.32,140.004 251.957,138.554 250.507,138.191 249.419,138.916 249.419,140.367 251.957,140.367 	"/>
	<polygon points="141.017,89.972 141.017,88.159 139.567,87.797 138.479,88.522 138.842,90.335 	"/>
	<polygon points="130.14,420.255 129.778,422.068 131.591,422.43 132.316,421.705 131.953,420.255 130.503,419.892 	"/>
	<polygon points="476.375,102.661 476.738,101.211 475.65,100.849 473.112,100.849 473.112,101.936 473.837,102.299 	"/>
	<polygon points="167.483,67.494 167.12,66.044 165.67,65.681 164.945,66.044 164.945,67.857 166.758,68.219 	"/>
	<polygon points="172.921,228.104 168.571,229.554 168.571,231.729 168.933,232.092 169.724,231.96 170.383,232.092 
		170.176,231.884 171.109,231.729 174.371,230.641 174.009,228.466 	"/>
	<polygon points="327.367,87.072 327.367,85.259 325.555,84.896 324.83,86.347 325.917,87.434 	"/>
	<polygon points="133.403,221.578 133.403,220.127 131.591,220.127 130.866,220.49 130.866,221.94 133.041,221.94 	"/>
	<polygon points="125.79,236.805 124.34,237.167 122.889,238.617 125.065,238.617 127.24,237.167 	"/>
	<rect x="318.467" y="108.625" transform="matrix(0.1961 -0.9806 0.9806 0.1961 149.3311 401.2543)" width="1.849" height="1.849"/>
	<polygon points="483.264,103.024 484.714,101.936 485.077,100.486 484.351,100.486 483.626,101.936 481.088,101.574 
		481.088,102.299 481.814,102.661 	"/>
	<polygon points="322.292,98.311 320.842,97.948 320.116,98.311 320.116,99.761 321.929,100.123 	"/>
	<polygon points="131.228,392.701 130.866,393.064 130.695,393.916 130.418,393.916 130.418,394.642 130.55,394.642 
		130.503,394.876 131.953,395.239 132.678,394.514 132.316,393.064 	"/>
	<polygon points="238.905,155.956 239.268,155.231 238.905,153.781 237.455,153.781 237.093,154.143 237.455,155.956 	"/>
	<polygon points="130.866,246.594 133.041,246.594 133.857,246.322 134.854,246.231 134.999,245.941 136.304,245.506 
		139.929,244.056 151.893,240.793 155.383,239.297 155.519,239.343 156.969,238.617 159.869,237.167 159.869,236.442 
		159.144,236.442 154.069,237.892 147.543,240.068 141.742,242.243 133.041,245.143 132.678,245.143 130.866,245.868 	"/>
	<polygon points="168.571,198.374 168.208,196.199 167.12,195.837 166.758,196.199 167.12,198.374 	"/>
	<polygon points="253.407,170.096 253.407,171.546 254.495,171.546 255.945,170.821 255.945,169.733 254.132,169.733 	"/>
	<polygon points="158.057,243.693 157.694,244.418 162.407,243.693 162.407,242.605 160.957,242.605 	"/>
	<polygon points="180.172,166.108 178.36,165.745 177.997,167.195 179.81,167.558 	"/>
	<polygon points="464.049,102.299 463.686,101.211 461.873,101.211 461.148,101.574 461.511,102.661 	"/>
	<polygon points="118.539,232.817 120.352,232.454 120.352,231.004 118.539,231.004 118.176,231.729 	"/>
	<polygon points="180.172,139.641 178.36,139.279 177.997,140.729 179.81,141.092 	"/>
	<polygon points="147.905,67.494 148.268,66.044 146.455,65.681 146.093,66.044 146.455,67.494 	"/>
	<polygon points="120.352,251.669 121.439,251.669 125.065,249.856 123.977,249.494 120.352,250.944 	"/>
	<polygon points="157.332,230.641 157.332,231.366 160.957,230.641 161.682,229.916 160.232,229.554 	"/>
	<polygon points="258.846,171.908 258.12,170.458 256.308,170.458 257.395,172.271 	"/>
	<polygon points="283.136,154.506 282.049,154.143 281.324,154.506 280.599,155.956 282.411,155.956 	"/>
	<polygon points="185.973,193.299 186.698,194.749 188.148,194.386 188.148,193.299 186.336,192.936 	"/>
	<polygon points="206.276,146.167 204.826,145.805 204.463,147.255 206.276,147.617 	"/>
	<polygon points="319.754,138.916 320.116,137.829 319.754,136.741 318.666,136.378 318.304,137.829 319.029,138.916 	"/>
	<polygon points="221.14,99.761 219.69,99.036 218.965,99.398 218.965,100.486 220.778,100.849 	"/>
	<polygon points="146.818,205.625 148.63,205.988 148.63,204.538 146.818,204.538 	"/>
	<polygon points="115.276,493.852 114.188,493.127 112.375,493.852 112.013,494.577 114.551,494.577 	"/>
	<polygon points="137.029,238.255 140.292,236.805 138.842,236.442 136.304,237.53 	"/>
	<polygon points="162.77,205.263 160.957,204.9 160.595,205.988 162.407,206.351 	"/>
	<polygon points="126.152,409.741 125.79,410.829 127.24,411.554 127.603,410.103 	"/>
	<polygon points="229.842,182.785 231.292,183.147 231.654,181.697 230.567,181.335 	"/>
	<polygon points="225.128,167.92 226.941,168.283 226.941,166.833 225.128,166.833 	"/>
	<polygon points="170.383,163.57 171.109,162.119 169.658,161.757 169.296,163.207 	"/>
	<polygon points="319.029,121.151 318.666,122.239 320.116,122.602 320.842,121.514 	"/>
	<polygon points="102.587,291.912 101.499,291.55 100.774,291.912 100.774,293 101.499,293.362 102.587,293 	"/>
	<polygon points="203.375,152.331 203.738,150.88 202.65,150.518 202.288,152.331 	"/>
	<rect x="369.061" y="96.498" width="1.45" height="1.45"/>
	<polygon points="194.674,88.884 193.224,88.522 192.862,89.61 194.312,89.972 	"/>
	<polygon points="107.662,201.637 106.212,200.912 105.85,201.637 106.575,202.725 107.662,202.362 	"/>
	<polygon points="141.017,570.35 141.742,571.438 142.83,571.075 142.83,569.988 141.379,569.988 	"/>
	<polygon points="128.69,559.836 130.14,559.836 130.866,558.749 129.053,558.749 	"/>
	<polygon points="123.252,556.211 124.702,556.573 125.79,555.486 123.977,555.486 	"/>
	<polygon points="123.615,291.912 123.615,290.825 122.527,290.462 122.164,291.912 	"/>
	<polygon points="118.176,183.51 117.089,183.51 116.726,184.598 118.176,184.96 	"/>
	<polygon points="114.188,509.442 113.101,510.53 114.913,510.53 115.276,509.442 	"/>
	<polygon points="193.949,204.175 193.949,205.263 195.762,204.538 195.762,203.813 194.674,203.813 	"/>
	<polygon points="165.67,137.466 167.12,137.829 167.12,136.741 166.033,136.378 	"/>
	<polygon points="197.937,91.06 196.85,90.697 196.487,91.785 197.937,92.147 	"/>
	<polygon points="530.395,80.546 529.308,80.546 528.582,81.633 529.67,81.996 	"/>
	<polygon points="116.726,258.195 115.276,257.833 114.551,258.558 116.001,258.92 	"/>
	<polygon points="254.857,140.729 253.407,140.729 253.407,141.454 254.495,142.179 	"/>
	<rect x="174.523" y="115.865" transform="matrix(0.3162 -0.9487 0.9487 0.3162 9.2632 245.7284)" width="1.146" height="1.146"/>
	<polygon points="121.077,463.036 120.352,463.761 121.802,464.123 122.164,463.036 	"/>
	<polygon points="147.905,445.271 147.905,445.996 149.718,445.996 150.081,445.271 	"/>
	<polygon points="206.638,180.247 207.726,180.247 208.089,179.159 206.638,179.159 	"/>
	<polygon points="525.32,80.908 524.232,80.908 523.869,81.996 525.32,81.996 	"/>
	<polygon points="135.216,56.98 133.766,56.618 133.403,57.343 134.854,57.705 	"/>
	<polygon points="127.603,283.574 129.053,283.574 129.778,282.849 127.603,282.849 	"/>
	<polygon points="366.16,134.928 365.073,134.928 364.71,135.653 366.16,136.016 	"/>
	<polygon points="144.642,594.641 144.642,595.366 146.093,595.366 146.093,594.641 145.368,594.279 	"/>
	<polygon points="93.16,355.721 94.248,355.358 94.248,354.633 92.798,354.633 	"/>
	<polygon points="163.858,242.605 165.67,241.88 164.22,241.518 	"/>
	<polygon points="175.097,232.454 173.646,232.092 173.646,233.179 	"/>
	<polygon points="128.69,224.115 127.965,224.115 127.24,224.478 127.24,225.203 128.328,225.203 	"/>
	<polygon points="98.599,300.251 100.049,299.888 99.324,299.163 98.599,299.526 	"/>
	<polygon points="129.415,453.972 130.866,453.247 129.053,453.247 	"/>
	<polygon points="131.953,237.892 131.591,238.98 133.041,238.255 	"/>
	<polygon points="162.77,233.904 161.682,233.542 160.957,234.267 	"/>
	<polygon points="141.017,109.912 141.742,110.275 142.105,109.187 141.017,109.187 	"/>
	<rect x="525.32" y="559.111" width="1.088" height="0.725"/>
	<polygon points="102.587,298.076 102.224,298.801 103.674,298.438 	"/>
	<rect x="318.666" y="161.757" width="1.088" height="0.725"/>
	<rect x="323.017" y="137.104" width="1.088" height="0.725"/>
	<rect x="203.738" y="89.247" width="1.088" height="0.725"/>
	<polygon points="110.563,506.904 111.65,506.542 110.563,506.179 	"/>
	<polygon points="95.336,316.203 94.611,316.928 96.061,316.566 	"/>
	<polygon points="352.383,105.199 352.383,105.924 353.471,105.562 	"/>
	<polygon points="317.941,98.673 316.853,98.673 316.853,99.036 317.941,99.398 	"/>
	<polygon points="592.391,89.247 592.029,89.972 593.116,89.972 	"/>
	<rect x="107.662" y="514.155" width="0.725" height="0.725"/>
	<polygon points="140.654,449.984 140.292,450.346 141.379,450.346 	"/>
	<rect x="79.746" y="300.251" width="0.725" height="0.725"/>
	<polygon points="116.364,294.088 115.638,293.725 115.276,294.088 	"/>
	<polygon points="101.862,265.446 101.499,265.809 102.587,266.171 	"/>
	<rect x="107.662" y="256.02" width="0.725" height="0.725"/>
	<polygon points="138.842,232.817 138.479,233.179 139.567,233.179 	"/>
	<rect x="267.547" y="147.98" width="0.725" height="0.725"/>
	<rect x="205.913" y="115.713" width="0.725" height="0.725"/>
	<polygon points="101.862,508.717 102.587,508.717 101.862,507.992 	"/>
	<polygon points="106.575,207.076 106.937,206.351 106.212,206.351 	"/>
	<polygon points="188.873,182.06 188.148,181.335 188.148,182.06 	"/>
	<polygon points="323.017,112.088 323.017,112.813 323.742,112.45 	"/>
	<polygon points="503.929,91.785 503.929,92.51 504.654,92.147 	"/>
	<path d="M666.991,299.291l1.088-1.45l2.538-0.363l0.363-0.363l1.088-1.813l0.363-1.45h-1.45l-2.9,0.725l0.725-1.088v-1.088h-2.538
		l-8.339,0.725l-0.725-1.813l3.988-1.45l2.538-0.725l0.363-1.45l-1.088-0.725l-3.988,0.363v-0.725l1.813-1.088v-1.088l-6.888-0.363
		l0.363-0.725l1.813-0.725l0.363-1.088h-5.438v-0.725h1.813l6.163-2.9l0.363-1.088h-6.526l-1.088,0.363l-1.813,0.725l-0.363-0.725
		h1.088l3.263-1.45l0.363-1.45h-3.625l-6.888,2.175v-0.725h0.725l3.263-1.45l0.725-1.45l-1.45-0.725h-3.263v-0.725h0.725
		l0.725-1.813l2.175-1.813v-1.088l-5.801,0.363h-4.713v-2.175l2.9-1.45l-0.363-1.45v-2.9l0.363-1.088l-2.175-0.725v-1.45
		l-1.088-0.363v-3.988h-1.45l-3.263,1.088l0.363-1.088l1.813-1.45v-1.45l2.9-1.813v-1.813l-0.363-0.363l0.725-1.813l-0.725-1.088
		h-1.813l-1.813,1.088h-2.175l-0.363-3.263h0.725l0.363-0.544l0.363-0.181l-0.145-0.145l0.145-0.218h-0.363l-0.363-0.363
		l-0.363,0.363l-1.813,1.088l0.363-1.088l2.9-2.175l5.076-2.538l4.713-1.813l0.363-1.45l-1.45,0.363h-4.713l-1.813,1.813h-3.263
		l-0.363-1.813l1.45-0.725l2.9-1.813l4.713-0.725l7.614-0.363l4.351-1.088l5.801-2.9l0.725-1.45l-3.263,0.725l-2.175,0.725
		l0.363-0.725l4.351-2.538l0.363-1.813l-1.813-0.725v-1.088l3.263-1.088h2.538l0.725-1.088l-0.363-1.45l-1.813-0.725h-3.625
		l-1.088-1.813h0.725l2.538-1.088l0.725-2.538l1.088-1.45l-0.363-1.45l-2.9-3.626l-0.363-3.263l-2.175-1.45h-8.701l-1.813,0.725
		l1.088-2.175h-5.076l-2.175,0.363l-1.45,0.725l-1.813,0.363l-3.625-0.725h-2.538l-5.801,2.175l-1.45,1.45l-3.263,1.088
		l-0.277-0.092v-0.398h-2.538l-1.469,0.128h-0.066l-1.45-0.363l3.988-2.538l0.725-2.175l4.351-1.813v-1.45h-1.813l-6.526,2.538
		l-1.317,0.263l-0.545,0.05l-0.676-0.675h-2.061l1.421-0.853v-1.088l-6.888-0.363l0.363-0.725l1.813-0.725l0.363-1.088h-5.438
		v-0.725h1.813l6.163-2.9l0.363-1.088h-6.526l-1.088,0.363l-1.813,0.725l-0.363-0.725h1.088l3.263-1.45l0.363-1.45h-3.625
		l-3.64,1.15l0.269-0.94l0.315-0.14l3.334-0.667l1.088-1.088l-2.175,0.363l1.813-2.538l-0.363-1.45l-2.175-1.813h-1.727v-0.49
		l-5.801,0.363h-4.713v-2.175l2.9-1.45l-0.363-1.45v-2.9l0.363-1.088l-2.175-0.725v-1.45l-1.088-0.363v-3.988h-1.45l-3.263,1.088
		l0.363-1.088l1.813-1.45v-1.45l2.9-1.813v-1.813l-0.363-0.363l0.725-1.813l-0.725-1.088h-1.813l-1.813,1.088h-2.175l-0.363-3.263
		h0.725l0.363-0.544l0.363-0.181l-0.145-0.145l0.145-0.218h-0.363l-0.363-0.363l-0.363,0.363l-1.813,1.088l0.363-1.088l2.9-2.175
		l5.076-2.538l4.713-1.813l0.363-1.45l-1.45,0.363h-4.713l-1.813,1.813h-3.263l-0.363-1.813l1.45-0.725l2.9-1.813l4.713-0.725
		l7.614-0.363l4.351-1.088l5.801-2.9l0.725-1.45l-3.263,0.725l-2.175,0.725l0.363-0.725l4.351-2.538l0.363-1.813l-1.813-0.725
		v-1.088l3.263-1.088h2.538l0.725-1.088l-0.363-1.45l-1.813-0.725h-3.625l-1.088-1.813h0.725l2.538-1.088l0.725-2.538l1.088-1.45
		l-0.363-1.45l-2.9-3.625l-0.363-3.263l-2.175-1.45h-8.701l-1.813,0.725l1.088-2.175h-5.076l-2.175,0.363l-1.45,0.725l-1.813,0.363
		l-3.625-0.725h-2.538l-5.801,2.175l-1.45,1.45l-3.263,1.088l-1.088-0.363h-3.263l-1.45-0.363l3.988-2.538l0.725-2.175l4.351-1.813
		v-1.45h-1.813l-6.526,2.538l-1.813,0.363l-0.725-0.725h-3.263l-2.175-0.363l-3.625-0.363l0.363-1.088l-0.363-1.813l-2.9-1.45
		l-4.351-0.363l-0.725-1.45l2.175-2.538l0.725-2.538l3.625-0.725l1.088-1.088l-2.175,0.363l1.813-2.538l-0.363-1.45l-2.175-1.813
		h-2.175l-2.175,1.813h-2.9l-0.363-0.363l-1.813-0.363l-1.813,0.725l-7.976,2.538h-2.9l-7.614,2.538l-2.175,1.45l-0.363,2.538
		l-0.725,0.363l-1.813,1.45l-5.438,2.175l-6.163,2.9l-3.263,2.175l-1.45,2.175l-5.076,2.538l-2.175-0.725h-3.263l-1.088,1.088
		l-2.538,1.088h-3.988l-3.988,1.45h-2.538l-0.725-0.363h-12.327l-0.363,1.088h2.538l1.088,2.175l-3.263,0.363l-2.175,1.45
		l0.363,2.175l-5.076,2.538l-3.263,0.363l-0.725-0.725l-2.175-0.725v-0.363l-0.363-1.813l-1.813,0.363l-0.363,1.813l0.725,1.088
		l-0.363,2.175l-2.538,0.363v0.363l-1.088,0.363l-3.263,0.363l-6.526,1.813l-6.526,1.45l-4.351,1.813l-3.263,0.725l-5.438,2.175
		l-13.052,4.351l-6.163,2.175l-5.438,2.175l-5.076,1.813l-5.438,2.538l-5.801,2.9l-3.988,1.813l-2.538,0.725l-0.363,1.088l-2.9,1.45
		l-7.614,2.9l-11.239,5.076l-5.438,2.538l-1.45-0.363h-1.813l-2.538,0.725l-2.175-0.363l-1.813,0.363l0.725,1.45h3.988l-0.363,0.725
		l-2.9,1.088l-0.725-0.363l-2.175-0.363l-6.163,3.263l-3.263,0.725l-10.876,3.988l-5.076,2.175l-2.9,0.725v-1.45l1.088-0.725
		l6.163-2.175l3.263-1.088l0.725-2.538l2.9-1.45l7.251-3.263l0.725-1.45l-2.175,0.363l-1.813,0.725v-2.175l-0.725-1.088h-1.813
		l-1.088,0.725v1.813l1.088,1.813l-1.813,0.725l-4.351,0.725l-6.888,2.9l-2.538,0.363l2.175-1.813l1.813-2.9v-2.175l-1.088-1.813
		l-4.351-2.175l-0.725-1.088l-1.813-0.363l-0.363,1.088l1.45,1.45l-1.45,2.538v3.263l0.363,1.088l1.088,1.45l0.363,1.45
		l-1.088,0.363l-1.088,2.175l-5.438,2.175l-1.813,0.363v-0.725l2.175-1.45l3.263-1.45v-1.088h-2.538l-1.45,0.363h-4.351
		l-8.701,4.713l-6.888,3.625l-3.263,1.088l-5.076,2.175l-4.351,1.45l-1.813,1.511v-0.06l-0.363,0.363l-3.263,0.725v1.606
		l-0.085-0.028l-0.072,0.215l-2.743-0.343v1.45l-3.626-0.725l-1.45,0.725l-3.625,2.538l-2.538,0.725l-1.088,0.725l-5.076,1.45v1.088
		h1.088v1.088l-1.813,0.725l-6.526,1.45l-2.9,1.088l-0.242,0.181l-0.483,0.181l-0.081,0.242l-0.645,0.483l-3.263,1.088l-0.725,1.45
		l2.216-0.201l-1.128,0.564l-3.625,1.088l-3.263,1.45l-2.9,0.363l2.538-1.088v-0.725h-2.175L202.288,202l-4.351,0.725l-0.725,0.725
		v1.813h-0.725l-1.007,0.403l-2.256,0.322l-0.453,0.091l-0.634-0.091l-2.538,0.725l-1.813,1.088l0.363,1.45l-2.538,0.363l-2.9,1.45
		l-5.076,1.813l-10.151,2.538l-8.339,3.263l-2.175-0.363l-0.57,0.104l-0.518-0.104l-1.45,0.363l-0.453,0.181l-0.997,0.181
		l-2.175,1.088l-3.263,1.45l0.079,0.02l-3.91,1.483l-0.158-0.053l-3.625,1.45l-0.131,0.087l-1.682,0.638l-3.625,1.088l-1.813,1.088
		l-2.9,0.725l-2.538,1.813l-2.175,0.725l-0.155,0.207l-0.691,0.276l-0.242-0.121l-0.363,0.363l-0.363,1.45l1.631,0.181l0.544,0.181
		l-4.351,1.813l-4.713,1.45l-2.9,1.45l-0.363,1.45h1.45l3.625-1.45l14.139-5.076l4.823-1.876l3.048-1.051l0.105,0.026l5.076-1.813
		l4.351-1.088l4.713-1.813l5.438-1.813l7.251-2.175v0.725h-1.088l-1.45,0.725l-8.701,2.9l-6.163,2.175v0.725h1.813l3.626-0.725
		l3.625-1.45l4.351-1.813l4.713-1.813l5.076-1.088l3.263-1.088l5.801-1.813l3.082-1.849l3.444-0.689l2.538-0.725l-0.363,1.088
		l-2.175,1.088l-5.076,1.813l-1.813,1.45l-2.538,0.725l-3.988,1.45l-3.807,1.903l-0.181-0.091l-0.363,0.363l-2.175,1.45l-4.351,1.45
		l-0.363,1.088l4.351-0.363l4.351-2.538l3.263-0.725l1.088-0.725l3.263-1.088l0.363,0.363h-1.088l-1.813,0.725l-0.725,0.725h3.988
		v0.725h0.725l1.45-1.45l3.263-1.088l3.626-1.45h4.713l1.813-0.363v0.725l-3.988,1.088l-1.088,1.45l-1.813,1.45l-3.626,1.813
		l-2.9,0.725l-1.45,0.725l-3.988,0.363l-0.725,0.363l-0.725,1.45l2.538-0.363l3.626-0.725l3.263-0.363l-3.24,1.458l-0.023-0.008
		l-0.363,0.181l-3.626,1.631l-0.155,0.259l-0.207,0.104l-0.181,0.544l-0.544,0.906l0.145,0.29l-0.145,0.435l0.483,0.242l0.242,0.483
		l0.502-0.112l0.223,0.112l1.194-0.427l1.344-0.299l1.861-0.846l0.677-0.242l0.453-0.272l0.997-0.453l3.263-1.088l1.305-0.218
		l0.336,0.084l-2.004,0.859l-3.626,1.45l-5.801,2.9l-3.988,1.45l-3.263,1.813l1.088,0.363l-0.363,0.725l-3.625,1.813l-2.719,1.088
		l-2.538,0.725l-4.894,1.088l-1.813-0.363l0.363-1.45h-1.45l-1.813,0.363l-6.888-0.363l1.45-1.088l2.538-0.363l3.263-1.506
		l3.625-1.394l2.039-0.68l0.499-0.045l1.813-0.725l1.934-0.806l0.242,0.081l2.175-1.088l3.263-2.538l-1.088-0.363l-2.9,1.088
		l-0.207,0.155l-0.518,0.207l-3.263,1.088l-3.988,1.45l-1.45,0.725l-3.263,1.45l-2.495,1.109l-5.118,1.791v1.45v0.725l-2.175,0.725
		l-0.544,0.363l-0.906,0.363l-3.626,1.813l-4.713,1.088l-2.175,1.45h-2.175v-1.088l-1.813-0.363l-2.175,1.45l-0.363,1.088h1.088
		l-1.178,1.178l-3.172,0.634l-1.813,0.725l-1.45,1.45l5.438-0.363l2.538-0.725l4.713,0.363l-0.363,0.725l-2.9,0.725l-1.088,1.088
		h-1.813l-0.363-0.363l-1.813-0.363l-0.363,0.725h-0.725v-0.725l-1.813,0.363l-0.363,1.088l-1.994,0.363h-1.994l-0.725-0.363
		l-0.593,0.099l-0.494-0.099l-3.263,0.725l-3.263,1.088v1.088l0.725,0.363l1.45-1.088h1.813l-2.538,1.088l-1.088,1.088l-3.263,0.725
		l-0.725,1.813l0.725,0.363l5.076-0.363l4.351-0.725v0.725l-1.088,0.363l-5.801,1.813v1.45l0.725,0.363l3.988,0.363l1.088-1.088
		h5.438l-4.713,1.813l-4.351,2.175l0.363,1.813h2.175l-1.813,1.088l0.725,0.725h3.988l2.175-0.363l0.725-1.45h1.088v1.088h1.45
		l1.45-0.725l3.263-0.725l2.175-1.088l2.9-0.363l0.725-1.088l2.538-0.725l3.988-1.813l5.801-1.813l5.438-1.45l-3.263,1.45
		l-3.625,1.088l-1.088,1.45l0.363,0.725l3.263-0.363l-1.45,0.725h-2.538l-0.725-0.725l-1.813,0.725l-2.175,1.088l-0.725,0.363
		l-4.351,1.088l-1.088,0.725h3.263l1.384-0.231l1.154,0.231l0.363,0.363h3.625l-1.45,1.45h2.538l0.967,0.242l-0.242,0.121
		l-9.064,3.988l-1.45,1.088h2.538l13.052-4.351l2.9-0.725l4.351-1.45l-1.813,1.813l-2.9,1.813l-3.263,0.725l-5.076,2.538
		l-1.813,0.725l-0.725,0.725l-3.625,1.088l-1.088,0.725l-2.175,0.725l-1.45,1.088l-2.175,1.088l-0.725,1.45l1.088,0.363
		l-0.725,0.725l-4.713,1.813l-2.538,1.088l-8.701,2.538l-4.351,1.813l-3.625,1.088l-3.263,1.45l-4.713,2.175l0.363,0.725
		l2.538-0.363l2.9-0.363v0.725l-2.538,1.088l-5.801,1.813l-4.351,1.813l-0.363,1.45l1.088,0.725l3.625,0.363l1.088,1.45l3.263,0.725
		l1.088,0.725l5.801,0.725l-0.363,1.088l-2.538,1.088l-4.713,1.45l-4.713,1.813l-3.988,2.538v1.088h1.813l1.813-0.725l8.701-2.538
		l2.9-0.363l-1.45,1.088l-5.801,2.9l-4.351,1.813l-1.813,1.088l-0.363,1.45h1.45l3.263-1.45l1.154-0.231l0.233,0.039l-1.386,0.554
		v1.088h2.538l0.363-0.363l5.076-1.088l-0.363,0.725l-2.538,1.813l-5.438,2.9l-1.088,1.088h7.976l4.713-1.088l5.438-0.363
		l-2.9,1.088l-9.064,3.263l-5.076,1.45v0.725l0.29,0.145l0.073,0.218l0.264-0.049l0.099,0.049l1.709-0.388l3.729-0.699l0.192-0.192
		l2.346-0.533l1.088,0.363h3.263l-1.088,0.725l-1.813,0.363v-0.725h-3.625l-3.193,1.474l-0.07-0.023l-1.45,0.725v0.725l0.267,0.076
		l0.095,0.286l1.394,0.139l0.781,0.223l3.263,0.363l3.263-0.725l5.438-0.363l1.088-0.363l3.988-0.725l4.351-1.088l-7.614,2.9
		l-4.713,1.45l-6.526,2.538l0.363,0.725l3.988-0.363l5.076-1.45l3.625-0.725l0.363-0.363l5.076-1.45h2.9l-10.151,4.351l-0.363,1.088
		l4.351-0.725l3.263-1.088l8.701-2.175l11.964-3.988l5.801-1.813h2.538l3.625-1.45l0.363,1.088h-0.725l-5.438,2.175l-4.351,1.088
		l-0.363,0.725l-2.9,1.088l-4.713,1.813l-5.438,1.088l-3.988,1.813l-5.076,1.813l-3.263,0.725l-1.45,0.725l-7.614,1.813
		l-6.163,1.813l-2.538,1.088v1.088l9.426-2.175l0.725,0.725h-0.725l-1.813,0.725l-0.725,1.45l2.538-0.725l9.789-2.538l6.163,0.725
		l2.9-0.363l3.625-1.45l5.801-1.088l2.538-0.725l2.538-0.363l6.526-1.813v1.45h1.813v0.725l-5.801,1.45l-3.626,0.725l-0.363,0.725
		l-2.175,1.088l-7.614,2.9v0.725h1.45l5.801-1.088l10.876-2.538l2.9-1.813l5.801-1.088v0.789l-0.085,0.064l-0.149,0.597h-1.215
		l-1.088,1.088l-9.064,2.9l-4.713,1.813l-2.9,0.725l-3.988,1.088l-8.339,2.538l0.363,1.088h2.9l10.876-1.45l3.263-0.725l2.538-0.725
		l5.801-2.9l3.988-1.088l5.801-1.45l0.572-0.154l-0.658,0.282l-1.088,1.088l-3.263,0.725l-0.725,1.813l0.725,0.363l5.076-0.363
		l4.351-0.725v0.725l-1.088,0.363l-5.801,1.813v1.45l0.725,0.363l3.988,0.363l1.088-1.088h1.804l-0.268,0.235v0.725l0.515,0.343
		l-1.325,0.51l-4.351,2.175l0.363,1.813h2.175l-1.813,1.088l0.725,0.725h0.597l-0.149,0.597v0.725l-6.526,3.626l-1.088,1.813
		l-0.363,1.813l1.088,0.363v0.725l-1.898,0.814v-1.773l-0.363-0.725l-1.813-1.45h-2.175l-1.45,1.813v2.175l0.725,1.45l1.813,1.088
		l1.813-0.363l0.392-0.49h1.506l2.9-0.725l0.725,0.363l-3.348,2.679v-0.376l-1.088-0.363l-0.725,0.363v1.088l0.725,0.363
		l0.626-0.209l-0.541,1.894l0.725,0.363l1.088-0.363l-0.099-0.033l0.824-0.33h2.175l5.801-0.725l-8.701,3.988l-0.171,0.341
		l-0.64-0.213l-0.363,0.725l0.853-0.213l-0.405,0.811h1.813l2.003-0.501l-0.638,0.266l-3.625,1.088l-1.959,0.871l-1.581,0.452v0.256
		l-4.436,2.047l0.363,0.725l2.538-0.363l2.9-0.363v0.725l-2.538,1.088l-5.801,1.813l-4.351,1.813l-0.363,1.45l1.088,0.725
		l3.625,0.363l1.088,1.45l3.263,0.725l1.088,0.725l5.801,0.725l-0.363,1.088l-2.538,1.088l-4.713,1.45l-4.713,1.813l-3.988,2.538
		v1.088h1.813l1.813-0.725l8.701-2.538l2.9-0.363l-1.45,1.088l-5.801,2.9l-4.351,1.813l-1.813,1.088l-0.363,1.45h1.45l3.263-1.45
		l1.154-0.231l0.233,0.039l-1.386,0.555v1.088h2.538l0.363-0.363l5.076-1.088l-0.363,0.725l-2.538,1.813l-5.438,2.9l-1.088,1.088
		h7.976l4.713-1.088l5.438-0.363l-2.9,1.088l-9.064,3.263l-5.076,1.45v0.725l0.29,0.145l0.073,0.218l0.264-0.049l0.099,0.049
		l1.709-0.388l3.729-0.699l0.192-0.192l2.346-0.533l1.088,0.363h3.263l-1.088,0.725l-1.813,0.363v-0.725h-3.626l-3.193,1.474
		l-0.07-0.023l-1.45,0.725v0.725l0.267,0.076l0.095,0.286l1.394,0.139l0.781,0.223l3.263,0.363l3.263-0.725l5.438-0.363l1.088-0.363
		l3.988-0.725l2.986-0.746v0.179l-6.249,2.38l-4.713,1.45l-6.526,2.538l0.363,0.725l3.988-0.363l5.076-1.45l3.625-0.725l0.363-0.363
		l5.076-1.45h2.9l-10.151,4.351l-0.363,1.088l4.351-0.725l0.59-0.197l-0.867,1.157l-3.988,1.813l-2.538,1.813l-3.625,0.363
		l-3.263,1.45l-3.625,1.088l-0.185,0.74l-0.263,0.113v0.626l-1.002,0.334l-5.076,1.813l-7.251,2.538l-10.514,3.988l-5.801,1.813
		l-3.988,2.538l-3.625,0.725l-0.725,1.813l-0.725,1.45l1.813,0.363l5.801-1.813l1.45-1.813l2.538-1.45l4.351-1.45l6.163-0.363
		l0.363,0.363l2.538,0.363l2.9-0.725h3.626v0.725h-0.725l-4.351,2.175l-6.526,2.9l-4.713,1.45l-8.701,2.9l-1.45,1.088l-2.175,0.725
		l-1.408,1.173l-0.043-0.085l-0.725,0.725v1.088h2.175l1.088,1.45L110.2,477.9v2.175l-1.813,0.725l-0.363,1.45l1.088,0.363
		l2.538-0.725h2.9l-1.088,1.813l0.363,1.45l-1.088,1.088l-0.725,1.45l2.538-0.363l-0.363,1.088l-3.626,1.813l-1.088,1.088
		l-3.263,1.813l-3.263,1.088l-0.363,1.088l0.363,0.091v0.272l0.604-0.121l0.483,0.121l0.466-0.311l0.259-0.052l1.523-0.508
		l1.74-0.218l1.45-1.088l2.538-0.363v-0.085l3.625-0.64l-0.363,1.088l3.625-0.363l0.363,1.088l5.438-0.363v0.725h-0.725l-2.9,1.45
		l-1.697,0.783l-0.116-0.058l-2.9,1.45l-0.725,1.45l1.45-0.363l3.263-1.088l-0.073-0.073l0.798-0.29l4.351-1.088l2.538,0.363
		l0.363,1.45h-0.725l-6.526,2.175l-7.614,3.988l-0.725,1.45l1.45,0.363l0.363,1.45l1.813-0.363l0.363-1.45h3.263l2.175-0.725
		l-1.813,1.45l-3.625,1.45l-0.725,1.088l2.175,0.725l-1.45,0.725l-0.725,1.813l-6.526,2.9l-0.363,1.45l3.988-0.363l0.363,1.45
		l3.988,0.363l3.988-1.813l3.625-1.45l0.363,1.088l-0.725,0.363l-2.175,3.263l0.363,3.625l5.076-0.363v0.725h-0.725l-3.625,1.813
		v0.725l2.9-0.363l3.263-0.363v1.45l-1.088,0.363l0.081,0.04l-0.806,0.322l-1.813,1.45l-2.175,1.45v3.263l1.45,0.363l-0.363,1.45
		l2.538,0.725v1.45l0.725,0.363l-1.45,1.088v1.45l1.813-0.363l-1.45,1.45l-4.713,1.813l-0.363,1.088h1.813l3.988-0.725l0.363,2.538
		l1.813,0.363v0.725l1.088,0.363v0.725l-3.263,1.088v1.45h2.175l2.175-0.725l-0.725,1.45l0.363,1.088h3.988l-0.363,0.725
		l-2.538,1.088l-1.813,1.813l4.351-0.363l-0.363,0.725l-1.813,1.088l-0.363,3.263l1.813,1.088h3.263l3.626-0.725l4.351-1.45
		l1.813-1.813l1.45-0.725l6.526-0.363l-0.363,0.725l-2.175,1.45l-0.363,1.45l1.088,0.363l4.351-0.363l-0.363,1.813h2.538
		l-0.534-0.134l3.435-0.229l0.725,0.725h1.813v0.725l-1.45,0.363l-0.309,0.927l-1.952,0.651l-1.408,1.173l-0.043-0.085l-0.725,0.725
		v1.088h2.175l1.088,1.45l-2.538,1.088v2.175l-1.813,0.725l-0.363,1.45l1.03,0.343l-4.933,0.617l-0.725,0.363l-1.45,1.45h5.438
		v0.725l-2.538,0.725l-5.438,1.45l-3.626,1.813l0.363,1.45h4.351l0.363-1.088l2.538-0.363l4.713-0.363l1.813-1.45l-0.725-2.9
		l3.263-0.725l1.024-0.512l0.341,1.365l-1.088,1.088l-0.725,1.45l2.538-0.363l-0.363,1.088l-3.625,1.813l-1.088,1.088l-3.263,1.813
		l-3.263,1.088l-0.363,1.088l0.363,0.091v0.272l0.604-0.121l0.483,0.121l0.466-0.311l0.259-0.052l1.523-0.508l1.74-0.218l1.45-1.088
		l2.538-0.363v-0.085l3.626-0.64l-0.363,1.088l3.625-0.363l0.363,1.088l5.438-0.363v0.725h-0.725l-2.9,1.45l-1.697,0.783
		l-0.116-0.058l-2.9,1.45l-0.725,1.45l1.45-0.363l3.263-1.088l-0.073-0.073l0.798-0.29l4.351-1.088l2.538,0.363l0.363,1.45h-0.725
		l-6.526,2.175l-7.614,3.988l-0.725,1.45l1.45,0.363l0.363,1.45l1.813-0.363l0.363-1.45h3.263l2.175-0.725l-1.813,1.45l-3.625,1.45
		l-0.725,1.088l2.175,0.725l-1.45,0.725l-0.725,1.813l-6.526,2.9l-0.363,1.45l3.988-0.363l0.363,1.45l3.988,0.363l3.988-1.813
		l3.626-1.45l0.363,1.088l-0.725,0.363l-2.175,3.263l0.363,3.626l5.076-0.363v0.725h-0.725l-3.625,1.813v0.725l2.9-0.363
		l3.263-0.363v1.45l-1.088,0.363l0.081,0.04l-0.806,0.322l-1.813,1.45l-2.175,1.45v3.263l1.45,0.363l-0.363,1.45l2.538,0.725v1.45
		l0.725,0.363l-1.45,1.088v1.45l1.813-0.363l-1.45,1.45l-4.713,1.813l-0.363,1.088h1.813l3.988-0.725l0.363,2.538l1.813,0.363v0.725
		l1.088,0.363v0.725l-3.263,1.088v1.45h2.175l2.175-0.725l-0.725,1.45l0.363,1.088h3.988l-0.363,0.725l-2.538,1.088l-1.813,1.813
		l4.351-0.363l-0.363,0.725l-1.813,1.088l-0.363,3.263l1.813,1.088h3.263l3.625-0.725l4.351-1.45l1.813-1.813l1.45-0.725
		l6.526-0.363l-0.363,0.725l-2.175,1.45l-0.363,1.45l1.088,0.363l4.351-0.363l-0.363,1.813h2.538l-0.534-0.134l3.435-0.229
		l0.725,0.725h1.813v0.725l-1.45,0.363l-0.363,1.088h2.175l6.163-1.45l3.625-1.45l2.175-0.363l0.363,2.9h-3.626l-0.725,0.363
		l-0.363,1.088l1.45,0.725h3.263l0.725,0.725h4.351v0.725l1.45,0.363l1.088-0.725v-1.813l5.076-1.45l6.163-0.725l0.363-0.363
		l3.263-1.813l9.426-4.713l6.526-1.088l1.45-1.813l5.801-2.175l5.076-0.725l-1.088,0.725v0.725h2.538l0.725-0.363l2.538-1.088
		v-0.725l0.725-0.725l6.888-2.538l2.9-0.363l1.45-0.363l7.614-1.45l7.976-1.45l4.351-1.45h9.426l2.9-0.725l3.263-1.813l1.088-1.813
		h3.263l1.813,0.725l2.538-2.175l0.725-1.813l5.076-1.45l3.988-0.363l0.363,2.175l1.45,0.363v0.725h-0.725v1.088l2.9,2.175
		l2.175,0.363l1.45-0.725l1.45-2.175v-2.9l1.813-0.725l3.263-0.725l3.625-1.088l3.263-0.725l3.626-1.45l1.088-1.088l8.701-1.45
		l2.175-0.725l1.45-1.088l-0.725-0.363l0.363-0.725l1.813-0.725l7.614-1.813l1.088-1.45l-0.363-0.725l-5.076,0.363l-4.085,1.257
		l-0.79,0.113l-0.806-0.403l-0.242-0.483l0.483-0.483l3.988-1.45l5.801-1.45l7.614-1.813l3.988-0.363l2.175,0.725v0.725l0.725,1.088
		h5.438l0.725-2.538l2.175-0.725l2.175-1.813h6.163l0.725-0.363l4.159-1.109l3.389-0.737l3.691-0.692l9.064-2.538l6.163-2.9
		l6.888-0.725l5.076-1.088l1.813-0.725l1.813-1.45l2.175-1.088l-0.15-0.038l1.238-0.688l0.725-1.813l3.988-2.175l2.175-0.725
		l3.263-1.088l7.251-3.625l1.813-0.725l0.28,0.105l-0.195,0.13v1.813l0.363,0.363h1.813l0.725-0.725l-0.122-0.611l0.037,0.014
		l1.45-0.725l0.043-0.171l0.32-0.192l-0.136-0.544l0.136-0.544l-0.326-0.218l-0.036-0.145l-0.259-0.052l-0.466-0.311l-0.816,0.054
		l-0.272-0.054l-4.351,0.363l-1.088,0.363l-0.218,0.29l-0.87,0.435l-3.263-0.363l-1.813,0.725l-4.713,0.725l0.363-0.725l2.175-0.725
		l4.351-1.813l2.417-0.363h0.846l3.988-0.725l3.626-1.45h2.538l0.725-1.088l2.538-0.363l0.363-1.45l-4.713,0.363l6.163-2.538
		l4.351-1.45l6.526-2.538l9.426-2.9h5.801l0.725-0.363l0.363-1.813l-2.538,0.363l0.363-0.725l-1.088-1.088l-0.363-1.45h-1.45
		l-1.088,0.363l-3.263,0.363h-0.725l-0.483,0.242l-0.604,0.121l-3.625,2.175l-4.713,0.363l-3.408,0.262l4.496-2.075l9.789-4.713
		l-0.258-1.031l0.983,0.164v0.505h0.725v-0.725h-0.405l0.49-0.49l0.062-0.308l2.028-1.014l5.076-2.175l7.251-2.538l6.526-1.813
		l4.713-0.725l1.813,1.088h2.9l2.9-1.45l7.251-2.175l6.526-1.45l3.263-1.088l2.538-0.725l0.363-2.175l-3.384,0.282l-0.521-0.087
		l2.454-0.92l5.438-1.45l0.363,1.088h1.813l1.088-1.088l-0.181-0.121l0.181-0.242l-0.976-0.39l1.339-0.335l5.438-2.175l0.725-1.45
		l-2.175-0.725v-4.713l-0.725-0.725l-0.725-1.813l-1.088-1.45l-1.813-1.088l-1.813-1.45v-0.725l10.876-3.625l4.713-1.088
		l7.976-2.175l2.9-1.088l6.163-2.538l4.351-2.9l5.801-2.175l1.813-1.088l-0.363-1.088h-1.813l-2.175,0.725l-5.438,1.088l-5.438,1.45
		l-5.076,1.813l-18.128,5.438l-3.263,0.363l-1.813-1.813l2.175-1.088l2.9-0.725l1.088-0.725l3.988-1.813l10.151-2.538l22.478-6.163
		l4.351-1.813l-0.363-1.45h-3.263l-10.151,2.175l-12.689,3.263l-8.701,1.813l-3.263,1.088l-7.251,2.538l-5.801,1.45l-6.163,1.088
		l-2.9,1.088l-3.625,1.088l0.363-0.725l2.175-0.725l1.088-0.725l11.964-3.988l10.151-3.988l9.064-1.813l27.916-7.251l6.526-2.175
		l5.076-1.088l6.163-1.813l8.701-3.263l0.363-1.45l-8.339,0.363l-13.052,2.9l-14.139,4.351l-6.888,1.45v-0.725l4.351-1.45
		l6.888-2.538l6.163-2.9l6.888-2.538l3.263-0.725l1.813-1.088l7.976-3.263l2.175-1.45l-0.363-1.45l-5.076,0.363l3.263-1.088
		l0.363-1.45h-2.538l-4.351,0.725l-7.614,2.175l0.363-2.9l2.9-1.45l12.327-2.9l2.9-1.088l0.363-2.175l2.9-1.088l3.263-1.088
		l-0.363-1.088h-1.45l-6.163,1.45l-1.813,0.725l-4.351,1.088l5.076-1.813l3.988-1.813l1.088-1.088l-2.538,0.363l-4.351,0.363
		l-0.363-1.813h-6.888l-3.988,0.725l-22.116,5.438h-2.9l0.725-0.363l6.888-2.9l8.339-2.175l10.876-2.9l8.701-2.538l1.088-1.088
		h-2.175l-3.263,0.725l-5.076,1.088l-4.351,1.088l-6.526,1.813l-3.625,0.725l0.363-1.45l11.602-3.625l6.163-1.45l0.363-1.45
		l-4.713,0.363l-5.438,1.088l0.725-1.088l4.351-1.45l0.363-1.45l-4.713,0.363h-8.701l-11.602,1.45l-4.713,0.725l-5.438,0.725
		l0.363-1.813l-0.725-1.813h0.725l1.813-1.45l5.438-2.175l5.438-2.175l3.625-2.9l4.351-1.45l4.713-2.175v-1.088l-1.45-0.363v-0.725
		l2.175-0.725l1.45-1.45l-0.363-1.813l-2.175-1.45h-2.175l-4.713,1.088l-1.152,0.32l-3.199,0.768l-9.426,2.9l-0.315,0.189
		l-4.035,1.261l-3.625,0.725l0.363-0.363l0.725-2.175l0.725-1.088l-0.725-1.088l4.713-2.9v-1.45h-1.813l-5.076,1.45l-13.414,3.625
		h-4.351l0.363-1.813h-0.725l0.363-1.45l-1.45-0.363l-2.538,0.725l-7.614,2.538l-9.789,2.538l-8.701,2.538l-3.625,0.725l-2.9,1.45
		h-3.263v-1.088h-1.45v1.45l-0.725,0.725l-2.815,0.217v-1.652l1.727-0.74l5.801-2.9l3.263-1.45l3.625-1.813l5.438-2.175l3.988-1.813
		l1.813-1.813h-1.813l-3.263,1.088l-6.163,2.538l-4.351,1.088l-1.813,1.088l-4.713,1.45l-4.808,1.414l-0.149-0.374l1.695-0.678
		l8.701-4.351l1.45-1.088l-1.45-0.363l-7.614,2.538l-3.625,1.45l-1.207,0.402l-0.883-0.53l-1.813-1.45v-0.725l10.876-3.625
		l4.713-1.088l7.871-2.147l0.02,0.099h1.45l0.176-0.706l1.359-0.51l6.163-2.538l4.351-2.9l5.801-2.175l1.813-1.088l-0.363-1.088
		h-1.813l-2.175,0.725l-5.438,1.088l-5.438,1.45l-5.076,1.813l-18.127,5.438l-3.263,0.363l-1.813-1.813l2.175-1.088l2.9-0.725
		l1.088-0.725l3.988-1.813l10.151-2.538l2.09-0.573v0.701l1.813,0.363l3.263-0.725l6.526-2.175l0.363-0.725h-2.62l11.044-3.028
		l4.351-1.813l-0.363-1.45h-3.263l-10.151,2.175l-12.689,3.263l-8.701,1.813l-3.263,1.088l-5.08,1.778l0.644-1.288h1.088
		l1.813-0.725l3.626-1.088l3.625-1.088l0.725-0.725l0.031-0.221l0.694-0.867l0.369-0.185l1.529-0.306l1.632-0.424l1.908-0.173
		l0.725-0.363l0.616-0.308l23.035-5.983l6.526-2.175l5.076-1.088l6.163-1.813l8.701-3.263l0.363-1.45l-8.339,0.363l-13.052,2.9
		l-5.474,1.684l0.313-0.469v-2.306l1.536-0.723l6.888-2.538l3.263-0.725l1.813-1.088l1.23-0.503l0.497,0.994l2.175-0.725
		l-0.309-1.235l4.382-1.793l2.175-1.45l-0.363-1.45l-5.076,0.363l3.263-1.088l0.363-1.45h-2.538l-4.351,0.725l-7.614,2.175
		l0.07-0.563l0.569-0.759l4.713-1.45l4.713-1.813l2.9-1.45l3.625-1.088v-0.504l1.898-0.712l0.043-0.261l1.684-0.337l0.906-0.363
		h0.181l0.725-0.363l1.088-1.088l-2.538-0.363l-0.403,0.101l1.576-0.591l3.263-1.088l-0.363-1.088h-1.45l-6.163,1.45l-1.077,0.431
		l0.213-0.532l3.764-1.711l1.088-1.088l-2.538,0.363l-0.561,0.047l0.113-0.281l3.988-1.088l3.988-2.175l5.438-2.175l4.713-1.813
		l6.526-1.45l0.363-1.45l1.813-0.725l-1.088-0.725h-2.9l-1.813,1.45l-3.626,1.088l-2.062,1.178l-3.739,1.36l-5.801,1.813
		l-2.538,0.363l2.175-0.725l1.088-0.363l-0.099-0.099l4.449-2.076l1.027-0.363h0.06l0.453-0.181l4.622-1.631l0.363-1.088
		l-1.088-0.363v-0.725l-1.45-0.363l-1.813,0.725l-3.625,0.725l-1.45,1.45l0.207,0.104l-0.207,0.259h0.725l0.725,0.363l-2.9,1.45
		l-3.625,1.088l-0.363-1.813l1.088-0.725l1.813-0.725v1.088h1.088l0.363-1.088l-0.725-0.363l0.725-0.725l3.625-1.088l2.538-1.45
		l4.713-1.45l2.175-1.813l3.988-0.363l2.175-0.725l5.801-1.813l3.263-1.088l2.538-0.363v-0.725h-0.725v-1.088h1.813v1.45
		l0.725,0.363l1.813,0.363v-0.725l1.088-0.363l2.9-0.363l3.988-2.175v-0.725l-1.088-0.725h-2.538l-1.813,0.725l-6.163,0.725
		l0.564-0.846l0.806-0.483l2.256-0.846l0.725-0.363l3.625-1.813h2.175l1.45-0.363v-2.9l0.363-1.088v-1.45h-2.175l-3.263,1.45
		l0.363-0.725l3.263-1.45l2.9-1.088l1.45-1.45l-0.363-1.45h-1.813l1.45-0.363l4.351-2.538l2.9-0.363l0.725-1.45l4.713-2.9
		l0.363-1.45h-1.088l-1.45,0.725l-3.988,1.088l1.088-2.9l2.9-2.175l0.725-2.538l-3.625,0.725l-1.45-0.725l-2.538,0.725l0.967-0.967
		l3.021-1.208l0.363-1.813h0.725l2.465-1.849l0.073,0.036l1.813-1.45l0.363-1.45l-1.45-0.363l-0.363,1.813h-2.175l0.363-0.725
		l1.45-0.725v-0.725l-0.725-0.363l-0.227,0.045l-0.136-0.045l-0.544,0.181l-0.906,0.181l-3.263,0.725l1.088-1.45L666.991,299.291z
		 M631.099,218.442h1.088v0.725l-0.725,0.363h-1.45L631.099,218.442z M580.427,124.777h1.088v0.725l-0.725,0.363h-1.45
		L580.427,124.777z M130.14,231.004v-0.282l0.104-0.046l0.032,0.011l0.093,0.279L130.14,231.004z M134.128,229.916l-1.813,0.363
		l0.725-1.088h1.088V229.916z M189.599,220.49l-2.9,0.363l0.363-0.725l1.813-0.725h1.45L189.599,220.49z M140.654,275.598
		l0.363-0.725l0.725,0.363L140.654,275.598z M519.796,563.59l0.483-0.121l0.242,0.121l1.692-0.604l0.483-0.121l0.081-0.081
		l2.82-1.007l3.263-0.363l-0.363,0.725l-5.076,1.813l-3.625,0.725V563.59z M587.593,515.008l5.801-1.45h1.813l1.088-0.725
		l1.088,0.363l-2.175,0.363v0.363l-2.175,1.088l-5.438,1.088V515.008z M610.796,492.53h1.813v0.363l-1.673,0.279l-0.139-0.279
		l-0.155-0.052L610.796,492.53z M524.594,413.729l-2.071,0.776l-1.643-0.235l0.813-0.542l2.815-0.938v0.341l2.129,0.237
		L524.594,413.729z M602.095,367.344v-0.302l1.352-0.483l-0.255,0.51L602.095,367.344z M570.638,134.928l1.813-1.088h1.45
		l0.363,1.088l-1.088,0.725h-2.538V134.928z M293.288,174.084h1.088l0.363,0.725l-1.45,0.363V174.084z M197.575,221.94l0.363-0.725
		h1.088v0.725H197.575z M194.951,431.984h2.538l3.626-1.45l0.363,1.088h-0.725l-5.392,2.157l-1.774,0.253l-1.235-1.235
		L194.951,431.984z M175.822,352.095l2.724-0.303l-0.272,0.068l-1.088,1.088h-1.813l-0.363-0.363l-0.494-0.099L175.822,352.095z
		 M171.509,448.505l-0.038,0.028l-3.263,0.725l-1.294-1.294L171.509,448.505z M167.846,348.833l-3.263,1.088l1.088,1.088
		l-0.363,0.725l-3.263,0.725l-1.45-0.363v-1.45l2.9-0.725l0.725-0.725l2.538-1.088h1.45L167.846,348.833z M187.651,434.297
		l-0.227,2.273l-1.45,0.725h-3.625l-1.318-0.791L187.651,434.297z M286.399,177.709l1.088-0.725h0.725l-0.363,1.088l-1.45,0.363
		V177.709z M218.24,198.078l2.175-0.791l-0.896,1.194l-1.28,0.256V198.078z M191.774,219.04l0.363-0.725l1.088,0.363L191.774,219.04
		z M192.136,215.414l0.363-0.725l4.351-2.175v-1.088l-1.45-0.363l-1.45,1.45l-3.625,1.45l-2.538,0.725l-3.172,1.269l-1.541,0.44
		l-6.526,1.554l-0.363-0.363l1.45-0.363l4.642-2.211l0.071,0.035l2.9-1.45v-1.45l2.175-1.088l4.351-1.45l5.801-1.813l1.45-1.088
		V204.9l2.538-0.725l-0.363,2.175v1.088l-0.725,3.625H198.3l-0.363,1.088h2.175l-0.725,1.088l0.145,0.072l-0.145,0.29l-4.351,1.813
		h-0.363H192.136z M195.037,218.315v-0.725l0.725-0.363h1.088l-0.363,0.725L195.037,218.315z M178.36,262.183l4.351-1.45
		l1.088,0.363l-2.9,1.088l-4.351,2.175l-3.406,1.022l-0.22-0.659L178.36,262.183z M162.77,248.044l-0.725,0.725l-0.363-0.725H162.77
		z M159.144,248.769h1.45l-1.45,0.725V248.769z M134.854,252.757h1.813v1.45h-2.175L134.854,252.757z M127.965,271.972l-2.175,0.363
		l0.363-0.725l2.175-1.088l1.45,0.363L127.965,271.972z M133.403,265.084l-4.351,1.813l-8.701,2.9h-2.175v-0.363l2.538-1.088
		l5.438-2.175l4.351-1.088l3.626-1.45l1.45,0.363L133.403,265.084z M134.491,259.645l-8.339,2.9l-3.131,0.626l-0.132-0.264
		l0.725-0.363l-0.272-0.091l0.272-0.272l3.428-1.285l2.373-0.527l5.801-2.175l7.251-2.9l3.625-1.088l4.351-1.813l6.888-2.538
		l-1.088,1.088l-0.363,1.45h-0.725l0.395,0.132l-3.296,1.318l-4.713,1.813L134.491,259.645z M146.093,263.633l0.363-0.725
		l0.725,0.363L146.093,263.633z M151.168,273.06l-1.088,0.363l0.363-1.088h0.725V273.06z M149.356,266.896l0.363-0.725l0.846,0.423
		L149.356,266.896z M151.893,258.558l-9.064,2.9l-3.988,1.813h-2.175l1.45-1.45l9.789-3.625l5.801-2.175l6.526-2.175h1.813
		l0.725-0.725l0.725,0.363l-1.45,0.363l-0.725,0.725l-5.801,2.9L151.893,258.558z M152.981,350.645l-3.263,0.363l-0.363-0.725
		l2.9-1.45l0.363-1.45l-0.725-0.363l-1.813-0.725l-0.725,0.363h-0.725l-0.363-0.725l2.175-0.725l1.813-0.725l1.813,0.363l2.9-0.363
		l3.263-0.363l5.076-0.725v-0.363l6.526-1.813l5.353-1.338v0.016l-3.625,1.088v1.45h2.175l3.626-1.45v-1.088l-1.055-0.352
		l2.591-0.864l1.813-0.363l1.546,0.309l-0.544,0.181h-0.363l-1.813,0.725v0.725h0.406l-2.496,0.96l0.572,0.191l-1.298,0.534
		l-3.263,0.725l-1.813,0.725l-6.888,2.538l-7.614,1.813L152.981,350.645z M168.571,433.177v-0.036l0.277-0.069L168.571,433.177z
		 M168.485,439.96l8.701-2.175l0.644-0.215l-0.196,1.174h-1.088l-2.538,1.088l-5.438,1.088l-2.076-0.296L168.485,439.96z
		 M150.081,456.147h-3.263v-0.725l1.45-0.363h1.813V456.147z M152.618,452.522l-4.275,0.329l3.187-1.416l2.997-0.599l-0.182,0.365
		l1-0.286l0.173,0.52L152.618,452.522z M159.949,576.232l2.373-0.678h0.065l-1.792,0.597L159.949,576.232z M284.139,641.175
		l-1.813,1.088l-5.801,1.45l-3.625,1.813l-6.163,1.813l-2.538,1.088l-4.351,0.363l-5.438-0.363l0.363,2.175l-3.263,0.725v1.088
		l-3.263,1.813l-4.351,1.088l-8.701,3.263l-3.263,0.363l-0.363-0.363v-2.175l1.74-0.87l0.073,0.145l0.725-0.363l-0.363-1.813h0.725
		l3.625-1.45l2.175-1.088l-0.435-0.145l1.16-0.58l1.813-0.363l4.351-0.363l0.725-1.45l1.088-0.725l6.526-1.45l5.801-1.088
		l3.626-1.088l3.625-0.363v0.725l-2.538,0.363l0.084,0.084l-1.534,0.279l-4.351,2.175v1.088l2.175-0.725l3.626-1.088l4.351-1.813
		l-0.404-0.135l4.755-1.678l0.363-1.813l2.175-0.725l5.438-0.725l0.725-0.363h1.813l0.725,1.45L284.139,641.175z M316.768,631.024
		l-1.45,0.363l0.363-1.45l1.088-0.363l0.264,1.055L316.768,631.024z M325.832,628.849l-1.45,1.088l-5.438,0.725v-1.813l3.263-1.088
		h2.9l0.725,0.363V628.849z M330.182,627.398l-2.9,0.363v-0.363l2.175-1.088h1.088L330.182,627.398z M348.31,621.598l-1.45,0.363
		l0.725-1.088h0.725V621.598z M375.501,613.259l-1.813,0.725l-2.748,0.305l-0.153-0.305l-0.145-0.073l0.145-0.29l4.351-1.088h0.725
		L375.501,613.259z M384.202,616.522h-0.363h-2.175v-0.725l1.088-0.363l1.45,0.363V616.522z M390.366,610.721l-5.076,0.725
		l-7.251,1.45l-1.088-0.363l0.725-0.725l5.438-1.45l3.263-1.088h3.988l0.725,0.363L390.366,610.721z M393.79,609.311l-1.611,0.322
		l0.453-0.453l1.36-0.272L393.79,609.311z M396.892,607.458h-0.725v-1.088h0.725V607.458z M403.78,606.008l-5.438,1.813l0.363-1.813
		h2.175l1.088-1.813h1.45l0.725,0.363L403.78,606.008z M414.294,609.633l-1.088-0.725h1.088V609.633z M492.242,564.315l-1.45-0.363
		l2.175-1.088l0.923,0.231l0.113,0.339L492.242,564.315z M502.031,563.59l-2.175,0.363l-0.725-0.483v-1.329h2.175l1.088-0.725
		l-3.347-0.279l0.446-0.446l3.625-1.088h1.088l-1.813,1.813l1.813,0.363l-0.363,0.363l0.458,0.153L502.031,563.59z M527.772,549.45
		l0.725-1.088l1.088,0.363L527.772,549.45z M531.035,547.638l0.725-0.725l1.45,0.363L531.035,547.638z M533.21,546.912l0.725-0.725
		l0.544,0.181l0.091,0.272L533.21,546.912z M561.489,510.657h0.725l2.175,0.544l-1.088,0.544l-2.465,0.247l-0.943-0.377
		L561.489,510.657z M542.722,419.892h1.813l1.088-0.725l1.088,0.363l-2.175,0.363v0.363l-2.175,1.088l-5.438,1.088v-1.088
		L542.722,419.892z M536.559,411.191l-5.801,1.45l-1.528,0.27l3.98-1.592l3.263-0.363l0.311,0.156L536.559,411.191z
		 M542.093,406.968h-1.377l3.094-1.215l0.278-0.056l-0.363,0.908L542.093,406.968z M547.712,405.156l-0.589-0.065l0.691-0.138
		L547.712,405.156z M561.937,399.227l-1.673,0.279l-0.139-0.279l-0.155-0.052l0.155-0.311h1.813V399.227z M572.088,394.514
		l-6.888,1.45v-0.725l4.351-1.45l2.968-1.093l0.935,0.134l2.175-0.363l1.45,0.363l0.76-0.085L572.088,394.514z M606.083,358.024
		v-0.725l1.088,0.363L606.083,358.024z M623.848,229.319h-2.538v-0.725l1.813-1.088h1.45l0.363,1.088L623.848,229.319z
		 M664.816,304.004l-0.363,1.45l-2.538,0.363l0.363-0.725l-0.167-0.084l1.255-1.004H664.816z"/>
	<polygon points="550.613,580.992 547.712,580.992 545.537,582.805 545.537,586.793 546.987,588.606 551.338,588.606 
		552.063,589.331 554.238,589.693 555.326,588.968 555.688,587.155 554.963,586.43 551.338,585.705 551.7,582.08 	"/>
	<polygon points="594.844,601.657 597.744,600.57 598.469,599.12 599.194,599.12 600.282,596.944 600.644,594.044 599.557,592.231 
		597.744,590.418 595.931,588.968 593.031,588.968 590.493,589.693 588.318,592.231 585.055,594.406 582.517,596.582 
		582.517,598.394 583.242,599.482 585.417,600.57 586.868,600.207 589.405,600.207 591.581,601.295 	"/>
	<polygon points="604.27,615.434 603.182,614.347 597.381,614.347 595.569,615.797 595.569,617.972 597.019,619.422 
		599.557,619.422 604.27,617.247 	"/>
	<polygon points="585.417,582.442 587.593,579.179 587.593,576.641 586.868,575.191 584.33,573.016 582.517,571.928 
		579.617,571.928 577.441,573.016 575.266,575.554 574.903,580.267 575.266,580.992 577.079,583.167 579.254,584.618 
		581.792,584.618 583.242,584.255 	"/>
	<polygon points="128.242,436.335 128.605,437.422 130.055,439.235 132.955,440.323 135.493,440.323 136.581,439.598 
		139.119,437.06 139.844,434.159 136.943,430.534 134.768,429.084 132.23,429.084 131.505,429.446 129.692,430.897 128.242,433.072 
			"/>
	<polygon points="412.844,675.98 414.294,674.167 414.294,671.992 413.206,668.729 410.668,665.829 406.318,665.829 
		404.868,667.279 403.417,670.542 403.417,674.167 404.505,675.98 407.768,677.068 410.668,677.068 	"/>
	<polygon points="139.844,394.642 141.657,394.642 142.382,393.916 144.92,391.016 144.92,388.116 143.469,385.578 141.294,384.128 
		140.782,384.128 140.292,383.637 138.479,383.637 137.942,384.353 136.943,384.853 135.131,387.028 134.768,391.379 
		138.031,393.554 	"/>
	<polygon points="404.505,643.351 404.143,641.175 403.055,639.363 401.242,637.912 398.704,637.55 395.804,639.363 
		393.991,642.263 394.354,644.801 395.804,646.976 397.617,648.064 400.88,648.064 401.967,647.701 403.78,645.888 	"/>
	<polygon points="460.7,620.51 459.613,620.873 458.162,622.323 458.162,624.498 459.975,626.311 462.15,626.311 463.601,625.223 
		463.963,622.685 463.238,621.598 	"/>
	<polygon points="211.266,669.817 205.465,670.542 204.74,670.904 203.29,672.355 208.728,672.355 208.728,673.08 206.19,673.805 
		200.752,675.255 197.127,677.068 197.489,678.518 201.84,678.518 202.202,677.43 204.74,677.068 209.453,676.705 211.266,675.255 
		210.541,672.355 213.804,671.63 215.979,670.542 215.979,669.092 213.441,669.092 	"/>
	<polygon points="568.74,611.446 567.29,609.996 564.752,609.633 562.939,610.721 562.577,613.259 563.664,614.709 564.027,617.972 
		564.752,619.06 566.565,620.147 568.015,619.785 569.465,618.697 569.828,616.522 569.103,614.709 	"/>
	<polygon points="212.716,178.562 214.167,177.474 214.167,173.849 213.079,172.761 211.266,172.761 210.541,173.124 
		209.091,174.574 209.091,176.387 210.541,178.199 	"/>
	<polygon points="597.381,613.622 599.194,613.259 600.644,611.809 600.644,609.271 599.194,606.371 596.656,605.283 
		594.119,605.283 593.031,605.645 591.581,607.096 591.218,610.359 593.031,612.171 596.656,612.896 	"/>
	<polygon points="608.258,629.211 607.533,629.574 607.17,630.661 603.907,629.936 602.457,631.386 602.82,633.199 604.633,633.924 
		606.808,632.474 609.708,632.474 610.796,631.024 610.071,629.574 	"/>
	<polygon points="591.218,540.387 591.581,541.474 594.844,541.474 600.282,538.936 603.545,537.486 603.907,536.761 
		602.095,536.761 601.732,537.124 596.656,538.211 592.306,539.299 	"/>
	<polygon points="327.282,643.713 325.107,646.251 324.986,647.097 324.761,647.658 324.382,647.611 323.294,647.339 
		322.902,647.426 322.206,647.339 322.37,647.544 320.031,648.064 318.943,645.888 316.768,644.801 313.868,644.438 
		310.967,645.888 310.967,648.789 309.517,650.964 309.88,651.689 316.768,651.689 320.031,651.327 324.174,649.6 324.688,649.486 
		328.37,649.151 330.182,647.339 330.182,645.163 329.457,644.076 	"/>
	<polygon points="589.043,583.892 589.405,585.705 591.943,586.43 594.119,588.243 595.569,587.88 595.206,583.892 594.844,583.53 
		592.306,583.167 589.405,583.53 	"/>
	<polygon points="387.103,688.307 385.29,689.757 385.29,691.932 387.103,693.382 389.278,693.382 390.366,692.295 390.366,690.12 
		388.915,688.669 	"/>
	<polygon points="306.617,651.327 304.079,650.964 302.629,652.414 302.266,653.865 303.716,654.952 307.342,654.952 
		308.792,654.227 308.429,653.139 	"/>
	<polygon points="461.788,599.482 460.338,599.845 456.35,601.657 454.174,603.108 454.899,603.833 459.975,602.745 
		464.326,600.932 463.963,599.482 	"/>
	<polygon points="386.015,684.319 387.828,682.506 387.828,680.693 386.74,678.88 384.565,677.43 382.752,677.43 381.664,677.793 
		380.214,679.243 379.852,681.781 380.939,683.594 382.752,684.681 385.29,684.681 	"/>
	<polygon points="553.513,629.211 552.425,629.574 550.613,631.749 550.613,634.287 552.425,636.462 554.963,636.825 
		557.138,635.737 557.864,634.287 557.864,631.024 556.413,629.574 	"/>
	<polygon points="579.254,545.462 579.617,544.375 577.079,544.375 575.266,544.737 570.19,546.187 566.383,547.275 
		566.202,547.275 565.115,547.638 564.752,548.725 566.927,548.725 	"/>
	<polygon points="133.318,396.092 132.593,396.454 130.78,397.542 130.78,399.355 131.868,400.442 134.768,400.442 135.856,399.717 
		136.218,397.905 134.768,396.454 	"/>
	<polygon points="532.848,603.833 534.298,602.745 534.66,600.207 533.573,599.12 531.397,599.12 530.31,599.845 529.947,602.02 
		531.035,603.47 	"/>
	<polygon points="477.74,606.371 475.927,608.183 475.927,609.996 476.652,610.721 478.828,611.084 480.278,610.359 
		480.641,607.821 479.553,606.733 	"/>
	<polygon points="561.852,664.378 561.127,665.104 560.764,667.279 561.852,668.729 563.664,669.092 565.115,668.004 
		565.115,665.466 564.027,664.378 	"/>
	<polygon points="481.366,596.944 478.828,597.669 478.465,599.845 480.278,599.845 482.816,598.757 486.441,598.757 
		486.441,596.582 484.266,596.582 	"/>
	<polygon points="536.111,648.064 534.298,649.151 533.935,651.327 534.66,652.414 536.473,652.777 538.286,651.327 
		538.286,649.514 537.561,648.426 	"/>
	<polygon points="561.489,610.721 560.039,609.271 557.864,609.271 557.138,609.996 556.776,611.809 557.501,612.896 
		559.314,613.622 561.127,612.534 	"/>
	<polygon points="412.119,679.968 410.668,681.056 410.668,682.869 412.119,684.319 414.294,684.319 414.656,683.956 
		415.019,681.418 414.294,680.693 	"/>
	<polygon points="626.023,388.841 625.66,391.379 626.748,392.104 629.286,391.741 630.011,389.566 629.286,388.116 
		627.473,387.753 	"/>
	<polygon points="533.573,569.391 533.21,567.94 531.397,567.94 528.135,568.303 524.146,569.391 523.421,570.116 532.123,570.116 	
		"/>
	<polygon points="356.649,639 355.561,639.725 355.198,641.9 355.923,642.988 358.099,643.351 359.186,642.625 359.549,640.813 
		358.461,639.363 	"/>
	<polygon points="369.7,644.076 368.975,645.163 369.338,647.701 370.788,648.426 372.601,647.701 372.963,645.163 371.876,644.076 
			"/>
	<polygon points="227.218,661.841 226.131,661.841 225.043,662.203 222.505,663.653 219.967,664.378 219.242,665.829 
		221.418,665.466 224.68,664.741 224.68,664.65 227.218,664.016 	"/>
	<polygon points="408.493,639 408.493,641.175 408.856,641.538 410.668,641.9 412.481,640.088 412.119,638.275 409.581,637.912 	"/>
	<polygon points="326.557,669.454 325.469,670.179 325.107,671.992 325.832,672.717 328.732,672.717 329.095,672.355 
		329.82,670.904 328.732,669.454 	"/>
	<polygon points="335.258,648.789 334.533,649.151 334.17,651.689 334.896,652.414 336.708,652.414 337.796,651.689 
		338.159,650.239 337.433,649.151 	"/>
	<polygon points="662.278,365.638 662.64,364.55 660.828,364.187 658.68,365.108 654.664,366.363 653.939,367.813 655.389,367.813 	
		"/>
	<polygon points="574.178,645.888 573.453,646.614 573.091,648.064 573.816,649.151 575.991,649.514 576.716,648.789 
		577.079,646.976 575.991,645.888 	"/>
	<polygon points="496.593,588.606 495.868,588.968 495.505,591.506 495.868,591.869 498.043,592.231 499.131,591.506 
		499.493,590.056 498.405,588.968 	"/>
	<polygon points="575.991,587.88 576.354,586.43 575.266,584.618 573.453,584.618 572.728,585.343 572.366,586.793 574.178,588.243 
			"/>
	<polygon points="204.378,660.39 205.103,658.94 202.565,658.578 201.84,658.94 198.577,659.665 197.852,661.116 200.752,661.116 	
		"/>
	<polygon points="643.063,359.837 640.887,359.474 639.437,360.924 638.712,362.737 641.25,362.737 642.338,362.375 
		643.425,361.287 	"/>
	<polygon points="559.314,551.988 558.951,550.175 555.326,550.175 554.601,550.538 554.238,551.626 555.688,552.351 
		558.589,552.713 	"/>
	<polygon points="413.569,633.199 412.481,633.924 412.119,635.737 413.206,636.825 415.019,636.825 415.744,636.1 415.744,634.287 
		415.019,633.562 	"/>
	<polygon points="515.445,600.57 513.633,602.02 513.995,604.195 515.808,604.92 516.895,603.833 516.895,601.657 516.533,600.932 	
		"/>
	<polygon points="512.182,589.331 511.457,590.418 512.545,591.869 515.445,591.869 516.533,591.506 516.895,590.418 
		515.445,589.693 	"/>
	<polygon points="403.78,618.335 403.417,618.697 403.417,620.51 403.78,620.873 406.68,620.51 408.01,620.147 408.131,620.147 
		410.668,619.422 410.668,618.697 407.768,618.697 405.23,618.697 	"/>
	<polygon points="344.684,639 343.597,640.45 343.959,642.263 345.772,642.625 346.86,641.538 346.497,639 	"/>
	<polygon points="525.597,650.239 525.234,650.602 524.872,652.777 525.597,653.502 527.409,653.502 528.135,652.777 
		528.135,650.964 527.409,650.239 	"/>
	<path d="M586.868,552.351v-0.725h-1.45l-3.988,1.088l-5.801,1.45l-9.426,2.828l-9.789,2.61l-3.263,1.088l-5.801,1.088l-2.175,0.725
		l-9.064,2.9v0.725h2.538v2.175l0.363,0.725l1.813,1.813h1.813l0.302-0.302l0.423-0.06l0.544-0.906l0.181-0.181v-0.121l0.363-0.604
		v-3.263l-1.45-0.363v-0.725h0.725l1.45,0.725l2.538,0.363l4.713-1.45l5.438-1.45l1.224-0.363h0.227l3.625-1.088v-0.016l4.713-1.434
		l1.813,0.363l1.45-0.363v-2.538h0.725l6.526-2.175L586.868,552.351z M547.35,564.315h-1.813l0.363-0.725h1.45V564.315z"/>
	<polygon points="297.553,644.801 295.378,644.801 292.477,645.526 289.214,646.614 289.214,646.65 288.127,646.976 
		288.852,649.151 291.752,649.151 293.565,648.064 297.19,646.976 	"/>
	<polygon points="388.915,633.924 388.553,634.649 388.915,636.1 390.003,637.187 391.816,637.187 392.178,635.375 390.728,634.287 
			"/>
	<polygon points="336.708,634.649 336.346,635.012 336.346,636.825 337.071,637.55 338.884,637.55 339.246,637.187 339.609,635.375 
		338.884,634.649 	"/>
	<polygon points="263.836,170.223 263.836,172.036 265.649,172.761 267.099,171.311 266.736,169.861 264.561,169.498 	"/>
	<polygon points="300.453,653.865 300.453,654.59 294.29,654.952 292.477,655.677 290.664,656.402 289.214,657.49 288.852,659.303 
		292.477,659.303 296.465,658.578 301.541,656.402 302.266,655.677 301.904,653.865 	"/>
	<polygon points="169.935,671.63 169.573,671.992 169.21,673.805 170.298,674.53 172.111,674.167 172.473,672.355 171.748,671.63 	
		"/>
	<polygon points="343.234,629.574 343.597,631.024 346.86,631.386 347.222,631.024 347.222,629.574 343.597,629.211 	"/>
	<polygon points="128.967,404.068 128.605,405.518 130.055,406.606 131.505,406.243 131.868,404.43 131.143,403.705 129.33,403.705 
			"/>
	<polygon points="535.748,638.637 536.473,637.912 535.748,636.462 532.848,636.1 532.485,637.187 533.935,638.637 	"/>
	<polygon points="493.692,600.932 492.967,601.657 492.967,603.47 493.33,603.833 495.142,603.833 495.868,603.108 495.505,601.295 
			"/>
	<polygon points="546.262,674.892 545.174,675.618 545.174,677.43 545.537,677.793 547.35,677.793 548.075,677.068 547.712,675.255 
			"/>
	<polygon points="569.465,416.032 568.378,416.032 566.202,416.395 564.752,417.12 562.939,418.57 564.752,418.932 565.84,418.207 
		569.465,416.757 	"/>
	<polygon points="549.888,607.458 548.075,607.458 547.35,608.183 547.712,609.996 549.888,609.996 550.613,608.908 	"/>
	<polygon points="374.776,632.474 373.326,632.112 371.151,632.837 370.788,633.924 371.513,634.287 374.051,634.649 
		375.139,634.287 	"/>
	<polygon points="556.776,578.092 554.963,577.367 554.238,577.729 553.876,579.542 554.601,580.267 556.413,579.904 	"/>
	<polygon points="207.641,663.653 207.278,664.016 205.465,665.104 205.465,666.554 208.728,666.191 208.728,664.016 	"/>
	<polygon points="545.899,599.845 546.262,601.657 548.437,601.657 548.8,601.295 548.437,599.482 546.625,599.12 	"/>
	<polygon points="640.887,377.239 639.8,377.964 639.437,379.414 641.25,379.777 642.7,379.414 642.338,377.602 	"/>
	<polygon points="171.023,633.562 171.386,631.749 169.935,631.749 168.123,632.474 168.123,633.924 170.298,633.924 	"/>
	<polygon points="539.011,614.347 538.648,616.159 539.736,616.885 541.186,616.159 541.186,614.347 539.374,613.984 	"/>
	<polygon points="151.083,605.283 150.358,606.008 150.72,607.458 152.533,607.821 153.258,606.733 152.896,605.645 	"/>
	<polygon points="291.027,653.502 291.027,654.227 290.302,654.227 290.302,654.952 294.29,653.865 294.653,652.777 
		293.202,652.414 	"/>
	<polygon points="651.764,437.422 652.489,438.873 654.302,438.873 654.664,438.148 654.302,436.697 652.852,436.335 	"/>
	<polygon points="419.37,613.622 418.645,614.709 420.82,614.709 424.083,613.622 424.083,612.896 421.907,612.896 	"/>
	<polygon points="189.513,184 191.688,183.638 191.688,181.825 190.238,181.462 189.151,182.187 	"/>
	<polygon points="215.617,159.709 215.617,161.522 217.429,161.885 218.155,161.16 217.792,159.709 216.342,159.347 	"/>
	<polygon points="536.111,642.988 536.111,641.175 534.298,640.813 533.573,642.263 534.66,643.351 	"/>
	<polygon points="246.071,650.964 245.708,652.414 246.796,652.777 248.246,652.414 248.246,650.964 246.433,650.602 	"/>
	<polygon points="418.645,648.426 418.282,648.789 418.282,650.602 419.007,650.964 420.457,650.239 420.095,648.426 	"/>
	<polygon points="620.947,398.267 624.21,398.267 624.21,397.542 623.122,396.817 620.947,396.817 	"/>
	<polygon points="225.406,665.829 225.406,666.554 226.131,666.916 228.306,666.554 229.756,665.466 227.943,665.104 	"/>
	<polygon points="506.382,588.968 507.469,590.056 508.919,589.693 508.919,588.243 507.107,587.88 	"/>
	<polygon points="645.601,347.51 644.15,347.51 641.975,348.235 641.975,348.38 638.712,349.685 636.899,350.411 636.537,350.411 
		635.087,351.136 633.636,352.223 636.899,351.861 645.238,348.598 	"/>
	<polygon points="532.848,562.14 536.111,562.14 539.011,561.414 542.999,559.239 542.999,558.514 540.461,558.514 539.736,558.877 
		534.298,560.689 	"/>
	<polygon points="646.688,269.924 645.963,270.65 647.051,271.012 650.314,269.924 650.676,268.837 649.589,268.837 
		648.864,269.199 	"/>
	<polygon points="271.087,653.502 266.374,654.952 262.386,656.402 257.31,658.578 257.31,659.665 260.21,659.303 259.123,661.478 
		260.573,661.478 263.111,660.39 266.011,660.39 266.374,660.028 266.736,658.215 267.461,657.49 270.362,655.677 275.075,653.502 
		274.35,653.139 	"/>
	<polygon points="513.633,629.936 513.995,631.749 515.445,631.386 515.445,629.936 513.995,629.574 	"/>
	<polygon points="575.629,564.677 577.079,565.04 577.804,563.59 576.354,562.865 575.629,563.227 	"/>
	<polygon points="544.812,633.924 546.625,634.287 546.987,632.837 545.174,632.474 	"/>
	<polygon points="520.521,585.343 520.521,586.793 521.971,587.155 522.334,585.705 520.884,584.98 	"/>
	<polygon points="198.939,159.709 197.127,159.347 196.764,159.709 197.127,161.16 198.577,161.16 	"/>
	<polygon points="648.138,347.51 650.676,346.06 649.226,345.697 646.688,347.148 	"/>
	<polygon points="526.684,577.004 526.322,578.092 528.135,578.092 529.222,577.367 529.222,576.641 527.409,576.641 	"/>
	<polygon points="396.892,628.124 395.079,628.124 394.716,629.574 396.529,629.574 	"/>
	<polygon points="546.987,433.072 549.162,433.072 550.613,431.984 549.162,431.622 548.075,431.984 	"/>
	<polygon points="566.202,428.721 568.015,428.721 569.465,427.996 569.103,426.908 567.29,427.634 	"/>
	
		<rect x="363.333" y="646.773" transform="matrix(0.2425 -0.9701 0.9701 0.2425 -352.4084 843.6835)" width="1.495" height="1.495"/>
	<polygon points="165.947,587.518 164.86,586.793 163.047,587.518 162.684,588.243 165.222,588.243 	"/>
	<polygon points="472.664,599.12 474.115,599.845 474.115,598.032 473.027,597.669 	"/>
	<polygon points="626.023,352.223 627.111,351.861 628.561,350.411 626.748,350.411 626.023,350.773 	"/>
	<polygon points="268.549,671.992 268.186,672.355 268.549,673.805 269.999,673.08 269.637,671.992 	"/>
	<polygon points="596.656,420.02 598.469,420.02 599.919,419.295 599.919,418.57 598.832,418.57 597.019,419.295 	"/>
	<polygon points="321.844,669.454 323.294,670.179 323.657,668.729 322.206,668.367 	"/>
	<polygon points="243.533,183.275 244.983,183.638 245.346,182.55 243.896,182.187 	"/>
	<polygon points="364.987,628.849 364.987,629.936 366.437,629.936 366.8,628.849 365.712,628.486 	"/>
	<polygon points="505.294,585.705 507.469,585.343 508.194,584.618 505.656,584.618 	"/>
	<rect x="613.334" y="371.801" width="1.088" height="1.813"/>
	<polygon points="191.688,664.016 192.414,665.104 193.501,664.741 193.501,663.653 192.051,663.653 	"/>
	<polygon points="383.84,659.665 385.29,660.028 385.29,658.578 384.202,658.578 	"/>
	<polygon points="179.362,653.502 180.812,653.502 181.537,652.414 179.724,652.414 	"/>
	<polygon points="173.924,649.877 175.374,650.239 176.461,649.151 174.649,649.151 	"/>
	<polygon points="405.593,610.721 405.23,611.809 406.318,612.171 407.043,611.084 	"/>
	<polygon points="542.999,555.251 541.911,555.251 540.824,556.339 542.999,556.339 	"/>
	<polygon points="554.238,420.745 557.501,419.658 556.413,419.295 555.326,419.658 	"/>
	<polygon points="661.19,329.383 659.74,329.383 659.015,329.745 659.015,330.47 661.19,330.108 	"/>
	<polygon points="336.346,643.351 335.621,642.988 334.896,644.438 335.983,644.801 	"/>
	<polygon points="164.86,603.108 163.772,604.195 165.585,604.195 165.947,603.108 	"/>
	<polygon points="510.007,583.53 508.919,583.892 508.194,584.618 510.007,584.618 511.095,583.892 	"/>
	<rect x="312.78" y="664.016" width="1.45" height="1.088"/>
	<rect x="354.988" y="657.279" transform="matrix(0.3162 -0.9487 0.9487 0.3162 -380.9711 787.136)" width="1.146" height="1.146"/>
	<polygon points="254.047,657.853 255.135,657.49 255.135,656.402 254.047,656.402 	"/>
	<polygon points="386.74,628.486 385.652,628.486 384.927,628.849 384.927,629.574 386.378,629.574 	"/>
	<polygon points="531.035,639.725 531.76,639.725 532.123,638.275 531.035,638.275 	"/>
	<polygon points="185.888,150.646 184.437,150.283 184.075,151.008 185.525,151.371 	"/>
	<polygon points="482.453,605.283 483.541,605.645 483.903,604.558 483.178,604.195 	"/>
	<polygon points="490.429,598.032 491.154,598.032 491.517,596.944 490.429,596.582 	"/>
	<polygon points="554.238,430.534 552.788,430.171 552.063,431.259 	"/>
	<polygon points="636.174,348.96 634.724,348.598 634.724,349.685 635.812,349.685 	"/>
	<polygon points="195.314,688.307 195.314,689.032 196.764,689.032 196.764,688.307 196.039,687.944 	"/>
	<polygon points="144.92,449.024 144.92,448.534 145.368,448.534 145.005,447.083 143.192,446.721 142.105,447.083 141.742,448.534 
		143.548,448.534 143.832,449.387 	"/>
	<rect x="510.37" y="575.916" width="1.45" height="0.725"/>
	<polygon points="536.111,557.064 535.748,558.151 537.198,557.789 537.198,557.064 	"/>
	<polygon points="149.995,392.829 149.27,393.191 149.27,393.916 150.72,393.554 	"/>
	<polygon points="570.19,650.239 570.915,650.239 571.278,649.514 570.19,649.151 	"/>
	<polygon points="563.302,573.016 563.302,573.741 564.027,574.104 564.389,573.016 	"/>
	<polygon points="592.668,533.861 592.306,534.223 593.756,534.586 593.756,533.861 	"/>
	<polygon points="612.971,367.813 612.971,367.088 611.883,367.088 611.521,367.45 	"/>
	<polygon points="191.688,203.578 192.414,203.94 192.776,202.853 191.688,202.853 	"/>
	<rect x="575.991" y="652.777" width="1.088" height="0.725"/>
	<polygon points="503.844,588.606 504.931,588.243 504.206,587.518 	"/>
	<polygon points="557.138,429.084 556.051,428.721 555.688,429.446 	"/>
	<polygon points="272.9,673.805 273.987,673.442 272.9,673.08 	"/>
	<polygon points="355.561,656.04 356.286,656.04 356.286,655.315 355.561,654.952 	"/>
	<polygon points="496.955,610.359 497.68,610.359 497.318,609.271 	"/>
	<polygon points="161.234,600.57 162.322,600.207 161.234,599.845 	"/>
	<polygon points="511.457,586.793 510.732,586.793 510.37,587.155 511.457,587.518 	"/>
	<polygon points="537.198,584.618 536.473,584.618 536.111,584.98 537.198,585.343 	"/>
	<polygon points="521.246,574.466 522.334,574.829 522.334,574.104 521.609,574.104 	"/>
	<polygon points="146.007,409.869 145.282,410.594 146.732,410.231 	"/>
	<polygon points="581.067,403.343 580.342,402.618 579.979,403.705 	"/>
	<polygon points="643.063,182.913 642.7,183.638 643.788,183.638 	"/>
	<polygon points="252.959,662.566 254.047,662.566 252.959,662.203 	"/>
	<rect x="158.334" y="607.821" width="0.725" height="0.725"/>
	<rect x="560.039" y="580.267" width="0.725" height="0.725"/>
	<polygon points="152.533,359.112 152.171,359.474 153.258,359.837 	"/>
	<rect x="609.346" y="355.486" width="0.725" height="0.725"/>
	<polygon points="375.139,661.841 375.864,661.478 375.139,661.116 	"/>
	<polygon points="312.417,656.402 312.417,657.128 313.143,656.765 	"/>
	<polygon points="443.298,611.446 444.023,611.809 443.66,611.084 	"/>
	<polygon points="152.533,602.383 153.258,602.383 152.533,601.657 	"/>
</g>
</svg>
